<svg xmlns="http://www.w3.org/2000/svg" width="258.514" height="67.109" viewBox="0 0 258.514 67.109">
  <g id="Group_102" data-name="Group 102" transform="translate(0.039)">
    <g id="Group_95" data-name="Group 95" transform="translate(0 1.244)">
      <path id="Path_153" data-name="Path 153" d="M514.253,475.5l1.634,4.285-1.826,3.285-1.5-3.409,1.688-4.16Zm-.013.048-.16,7.6" transform="translate(-479.586 -475.499)" fill="none" stroke="#7f654f" stroke-miterlimit="2.613" stroke-width="0.17"/>
      <path id="Path_154" data-name="Path 154" d="M513.6,475.53l-.169,7.5,1.8-3.289-1.63-4.211Z" transform="translate(-478.913 -475.475)" fill="#7f654f" fill-rule="evenodd"/>
      <path id="Path_155" data-name="Path 155" d="M512.016,475.5l2.094,4.082-1.454,3.464-1.862-3.224,1.223-4.322Zm-.007.05.675,7.569" transform="translate(-480.969 -475.499)" fill="none" stroke="#7f654f" stroke-miterlimit="2.613" stroke-width="0.17"/>
      <path id="Path_156" data-name="Path 156" d="M511.492,475.53l.656,7.474,1.427-3.466-2.083-4.007Z" transform="translate(-480.423 -475.475)" fill="#7f654f" fill-rule="evenodd"/>
      <path id="Path_157" data-name="Path 157" d="M509.713,475.734l2.544,3.817-1.054,3.607-2.215-2.993.724-4.431Zm0,.05,1.529,7.445" transform="translate(-482.377 -475.316)" fill="none" stroke="#7f654f" stroke-miterlimit="2.613" stroke-width="0.17"/>
      <path id="Path_158" data-name="Path 158" d="M509.411,475.762l1.5,7.351,1.025-3.606-2.523-3.746Z" transform="translate(-482.047 -475.294)" fill="#7f654f" fill-rule="evenodd"/>
      <path id="Path_159" data-name="Path 159" d="M507.447,476.2l2.957,3.505-.637,3.7-2.539-2.724.219-4.486Zm0,.052,2.361,7.222" transform="translate(-483.75 -474.951)" fill="none" stroke="#7f654f" stroke-miterlimit="2.613" stroke-width="0.17"/>
      <path id="Path_160" data-name="Path 160" d="M507.37,476.229l2.32,7.134.611-3.7-2.931-3.436Z" transform="translate(-483.64 -474.929)" fill="#7f654f" fill-rule="evenodd"/>
      <path id="Path_161" data-name="Path 161" d="M505.479,476.9l3.336,3.147L508.6,483.8l-2.831-2.419-.29-4.481Zm.009.048,3.164,6.911" transform="translate(-485.115 -474.406)" fill="none" stroke="#7f654f" stroke-miterlimit="2.613" stroke-width="0.17"/>
      <path id="Path_162" data-name="Path 162" d="M505.5,476.924l3.113,6.826.188-3.744-3.3-3.082Z" transform="translate(-485.098 -474.387)" fill="#7f654f" fill-rule="evenodd"/>
      <path id="Path_163" data-name="Path 163" d="M503.689,477.762l3.671,2.75.212,3.753-3.087-2.083-.8-4.42Zm.016.048,3.925,6.509" transform="translate(-486.512 -473.733)" fill="none" stroke="#7f654f" stroke-miterlimit="2.613" stroke-width="0.17"/>
      <path id="Path_164" data-name="Path 164" d="M503.713,477.784l3.866,6.429-.237-3.741-3.629-2.688Z" transform="translate(-486.493 -473.716)" fill="#7f654f" fill-rule="evenodd"/>
      <path id="Path_165" data-name="Path 165" d="M501.928,478.808l3.959,2.316.634,3.7-3.3-1.72-1.292-4.3Zm.021.046,4.636,6.021" transform="translate(-487.886 -472.917)" fill="none" stroke="#7f654f" stroke-miterlimit="2.613" stroke-width="0.17"/>
      <path id="Path_166" data-name="Path 166" d="M501.955,478.827l4.569,5.951-.659-3.69-3.91-2.26Z" transform="translate(-487.865 -472.903)" fill="#7f654f" fill-rule="evenodd"/>
      <path id="Path_167" data-name="Path 167" d="M500.3,480.048l4.2,1.853,1.05,3.609-3.475-1.335-1.771-4.127Zm.027.043,5.289,5.458" transform="translate(-489.159 -471.95)" fill="none" stroke="#7f654f" stroke-miterlimit="2.613" stroke-width="0.17"/>
      <path id="Path_168" data-name="Path 168" d="M500.325,480.064l5.213,5.4-1.072-3.592-4.141-1.8Z" transform="translate(-489.136 -471.938)" fill="#7f654f" fill-rule="evenodd"/>
      <path id="Path_169" data-name="Path 169" d="M498.807,481.555l4.379,1.367,1.451,3.466-3.6-.933-2.225-3.9Zm.03.039,5.873,4.824" transform="translate(-490.321 -470.774)" fill="none" stroke="#7f654f" stroke-miterlimit="2.613" stroke-width="0.17"/>
      <path id="Path_170" data-name="Path 170" d="M498.837,481.568l5.79,4.77-1.472-3.448-4.318-1.323Z" transform="translate(-490.297 -470.764)" fill="#7f654f" fill-rule="evenodd"/>
      <path id="Path_171" data-name="Path 171" d="M497.513,483.206l4.506.863,1.835,3.279-3.689-.52-2.652-3.623Zm.036.037,6.38,4.128" transform="translate(-491.33 -469.486)" fill="none" stroke="#7f654f" stroke-miterlimit="2.613" stroke-width="0.17"/>
      <path id="Path_172" data-name="Path 172" d="M497.545,483.215l6.293,4.085-1.853-3.259-4.44-.826Z" transform="translate(-491.306 -469.479)" fill="#7f654f" fill-rule="evenodd"/>
      <path id="Path_173" data-name="Path 173" d="M496.393,484.931l4.575.347,2.193,3.05-3.722-.1-3.046-3.3Zm.039.032,6.808,3.379" transform="translate(-492.204 -468.14)" fill="none" stroke="#7f654f" stroke-miterlimit="2.613" stroke-width="0.17"/>
      <path id="Path_174" data-name="Path 174" d="M496.426,484.936l6.715,3.345-2.21-3.028-4.505-.318Z" transform="translate(-492.179 -468.136)" fill="#7f654f" fill-rule="evenodd"/>
      <path id="Path_175" data-name="Path 175" d="M495.546,486.72l4.584-.174,2.525,2.783-3.708.324-3.4-2.932Zm.043.027,7.146,2.587" transform="translate(-492.865 -466.88)" fill="none" stroke="#7f654f" stroke-miterlimit="2.613" stroke-width="0.17"/>
      <path id="Path_176" data-name="Path 176" d="M495.579,486.73l7.05,2.564-2.538-2.759-4.512.194Z" transform="translate(-492.84 -466.888)" fill="#7f654f" fill-rule="evenodd"/>
      <path id="Path_177" data-name="Path 177" d="M494.815,488.935l4.536-.691,2.823,2.478-3.65.742-3.71-2.53Zm.046.023,7.392,1.761" transform="translate(-493.435 -465.555)" fill="none" stroke="#7f654f" stroke-miterlimit="2.613" stroke-width="0.17"/>
      <path id="Path_178" data-name="Path 178" d="M494.848,488.938l7.295,1.749-2.834-2.453-4.461.7Z" transform="translate(-493.409 -465.563)" fill="#7f654f" fill-rule="evenodd"/>
      <path id="Path_179" data-name="Path 179" d="M494.377,491.064l4.427-1.2,3.087,2.143-3.543,1.15-3.972-2.094Zm.046.018,7.545.913" transform="translate(-493.777 -464.291)" fill="none" stroke="#7f654f" stroke-miterlimit="2.613" stroke-width="0.17"/>
      <path id="Path_180" data-name="Path 180" d="M494.409,491.06l7.447.912-3.094-2.117-4.352,1.2Z" transform="translate(-493.752 -464.298)" fill="#7f654f" fill-rule="evenodd"/>
      <path id="Path_181" data-name="Path 181" d="M494.173,493.368l4.262-1.693,3.309,1.78L498.357,495l-4.184-1.631Zm.048.012,7.6.053" transform="translate(-493.936 -462.878)" fill="none" stroke="#7f654f" stroke-miterlimit="2.613" stroke-width="0.17"/>
      <path id="Path_182" data-name="Path 182" d="M494.2,493.357l7.5.064-3.313-1.753-4.188,1.69Z" transform="translate(-493.912 -462.884)" fill="#7f654f" fill-rule="evenodd"/>
      <path id="Path_183" data-name="Path 183" d="M494.04,495.568l4.045-2.165,3.489,1.394-3.192,1.917-4.342-1.147Zm.05.007,7.557-.806" transform="translate(-494.04 -461.53)" fill="none" stroke="#7f654f" stroke-miterlimit="2.613" stroke-width="0.17"/>
      <path id="Path_184" data-name="Path 184" d="M494.07,495.55l7.461-.787L498.04,493.4l-3.97,2.153Z" transform="translate(-494.016 -461.534)" fill="#7f654f" fill-rule="evenodd"/>
      <path id="Path_185" data-name="Path 185" d="M494.186,497.761l3.772-2.61,3.626.99-2.955,2.266-4.444-.646Zm.05,0,7.418-1.657" transform="translate(-493.926 -460.166)" fill="none" stroke="#7f654f" stroke-miterlimit="2.613" stroke-width="0.17"/>
      <path id="Path_186" data-name="Path 186" d="M494.215,497.735l7.324-1.626-3.623-.962-3.7,2.588Z" transform="translate(-493.904 -460.169)" fill="#7f654f" fill-rule="evenodd"/>
      <path id="Path_187" data-name="Path 187" d="M494.583,499.78l3.632-2.8,3.673.8-2.832,2.418-4.472-.415Zm.05,0,7.322-2.042" transform="translate(-493.616 -458.74)" fill="none" stroke="#7f654f" stroke-miterlimit="2.613" stroke-width="0.17"/>
      <path id="Path_188" data-name="Path 188" d="M494.611,499.752l7.229-2.005-3.668-.773-3.561,2.778Z" transform="translate(-493.595 -458.743)" fill="#7f654f" fill-rule="evenodd"/>
      <path id="Path_189" data-name="Path 189" d="M523.611,479.762a25.293,25.293,0,1,1-25.292,25.292,25.3,25.3,0,0,1,25.292-25.292Zm0,1.5a23.795,23.795,0,1,1-23.795,23.795,23.8,23.8,0,0,1,23.795-23.795Z" transform="translate(-490.702 -472.173)" fill="#7f654f" fill-rule="evenodd"/>
      <path id="Path_190" data-name="Path 190" d="M513.044,515.83l-1.634-4.287,1.827-3.284,1.5,3.411-1.688,4.16Zm.012-.048.16-7.6" transform="translate(-480.487 -449.997)" fill="none" stroke="#7f654f" stroke-miterlimit="2.613" stroke-width="0.17"/>
      <path id="Path_191" data-name="Path 191" d="M513.033,515.735l.168-7.5-1.8,3.289,1.631,4.211Z" transform="translate(-480.493 -449.958)" fill="#7f654f" fill-rule="evenodd"/>
      <path id="Path_192" data-name="Path 192" d="M495.13,501.7l3.434-3.042,3.717.548-2.661,2.6-4.49-.11Zm.052-.005,7.164-2.535" transform="translate(-493.19 -457.433)" fill="none" stroke="#7f654f" stroke-miterlimit="2.613" stroke-width="0.17"/>
      <path id="Path_193" data-name="Path 193" d="M495.157,501.663l7.077-2.492-3.713-.521-3.364,3.013Z" transform="translate(-493.169 -457.436)" fill="#7f654f" fill-rule="evenodd"/>
      <path id="Path_194" data-name="Path 194" d="M495.893,503.551l3.228-3.261,3.746.3-2.485,2.772-4.488.185Zm.05-.009,6.984-3" transform="translate(-492.594 -456.156)" fill="none" stroke="#7f654f" stroke-miterlimit="2.613" stroke-width="0.17"/>
      <path id="Path_195" data-name="Path 195" d="M495.919,503.514l6.9-2.949-3.738-.278-3.16,3.227Z" transform="translate(-492.575 -456.158)" fill="#7f654f" fill-rule="evenodd"/>
      <path id="Path_196" data-name="Path 196" d="M496.853,505.589l2.806-3.628,3.755-.155-2.129,3.055-4.431.728Zm.048-.014,6.567-3.826" transform="translate(-491.845 -455.018)" fill="none" stroke="#7f654f" stroke-miterlimit="2.613" stroke-width="0.17"/>
      <path id="Path_197" data-name="Path 197" d="M496.875,505.534l6.488-3.768-3.744.18-2.743,3.588Z" transform="translate(-491.828 -455.005)" fill="#7f654f" fill-rule="evenodd"/>
      <path id="Path_198" data-name="Path 198" d="M498.091,507.615l2.343-3.945,3.708-.611-1.741,3.292-4.31,1.264Zm.046-.021,6.051-4.6" transform="translate(-490.879 -454.044)" fill="none" stroke="#7f654f" stroke-miterlimit="2.613" stroke-width="0.17"/>
      <path id="Path_199" data-name="Path 199" d="M498.11,507.55l5.98-4.53-3.694.635-2.285,3.9Z" transform="translate(-490.864 -454.027)" fill="#7f654f" fill-rule="evenodd"/>
      <path id="Path_200" data-name="Path 200" d="M499.5,509.484l1.844-4.2,3.607-1.059-1.328,3.479-4.123,1.78Zm.044-.025,5.446-5.3" transform="translate(-489.779 -453.138)" fill="none" stroke="#7f654f" stroke-miterlimit="2.613" stroke-width="0.17"/>
      <path id="Path_201" data-name="Path 201" d="M499.517,509.412l5.383-5.226-3.59,1.08-1.794,4.145Z" transform="translate(-489.767 -453.116)" fill="#7f654f" fill-rule="evenodd"/>
      <path id="Path_202" data-name="Path 202" d="M501.019,511.026l1.319-4.394,3.45-1.49-.894,3.616-3.876,2.268Zm.039-.03,4.76-5.926" transform="translate(-488.595 -452.428)" fill="none" stroke="#7f654f" stroke-miterlimit="2.613" stroke-width="0.17"/>
      <path id="Path_203" data-name="Path 203" d="M501.031,510.945l4.707-5.842-3.432,1.51-1.275,4.332Z" transform="translate(-488.585 -452.401)" fill="#7f654f" fill-rule="evenodd"/>
      <path id="Path_204" data-name="Path 204" d="M502.682,512.543l.773-4.522,3.244-1.9-.447,3.7-3.569,2.726Zm.034-.038,4-6.46" transform="translate(-487.297 -451.666)" fill="none" stroke="#7f654f" stroke-miterlimit="2.613" stroke-width="0.17"/>
      <path id="Path_205" data-name="Path 205" d="M502.69,512.456l3.959-6.372L503.428,508l-.738,4.456Z" transform="translate(-487.291 -451.636)" fill="#7f654f" fill-rule="evenodd"/>
      <path id="Path_206" data-name="Path 206" d="M504.424,513.82l.217-4.582,2.987-2.28.007,3.724-3.211,3.139Zm.032-.039,3.183-6.9" transform="translate(-485.938 -451.014)" fill="none" stroke="#7f654f" stroke-miterlimit="2.613" stroke-width="0.17"/>
      <path id="Path_207" data-name="Path 207" d="M504.428,513.73l3.153-6.807-2.964,2.3-.19,4.512Z" transform="translate(-485.935 -450.981)" fill="#7f654f" fill-rule="evenodd"/>
      <path id="Path_208" data-name="Path 208" d="M506.5,514.67l-.344-4.573,2.688-2.628.461,3.694L506.5,514.67Zm.027-.043,2.32-7.238" transform="translate(-484.589 -450.617)" fill="none" stroke="#7f654f" stroke-miterlimit="2.613" stroke-width="0.17"/>
      <path id="Path_209" data-name="Path 209" d="M506.506,514.576l2.3-7.141-2.662,2.639.362,4.5Z" transform="translate(-484.597 -450.581)" fill="#7f654f" fill-rule="evenodd"/>
      <path id="Path_210" data-name="Path 210" d="M508.818,515.336l-.9-4.5,2.348-2.936.908,3.612-2.357,3.822Zm.02-.046,1.422-7.466" transform="translate(-483.211 -450.279)" fill="none" stroke="#7f654f" stroke-miterlimit="2.613" stroke-width="0.17"/>
      <path id="Path_211" data-name="Path 211" d="M508.818,515.24l1.413-7.368-2.32,2.944.908,4.424Z" transform="translate(-483.218 -450.241)" fill="#7f654f" fill-rule="evenodd"/>
      <path id="Path_212" data-name="Path 212" d="M511.055,515.71l-1.44-4.355,1.972-3.2,1.341,3.473-1.873,4.08Zm.014-.048.5-7.584" transform="translate(-481.888 -450.08)" fill="none" stroke="#7f654f" stroke-miterlimit="2.613" stroke-width="0.17"/>
      <path id="Path_213" data-name="Path 213" d="M511.048,515.614l.5-7.485-1.945,3.2,1.44,4.28Z" transform="translate(-481.894 -450.04)" fill="#7f654f" fill-rule="evenodd"/>
      <path id="Path_214" data-name="Path 214" d="M515.375,515.692l-2.143-4.055,1.412-3.484,1.9,3.2-1.168,4.337Zm.007-.05-.767-7.562" transform="translate(-479.066 -450.078)" fill="none" stroke="#7f654f" stroke-miterlimit="2.613" stroke-width="0.17"/>
      <path id="Path_215" data-name="Path 215" d="M515.357,515.6l-.747-7.465-1.385,3.484,2.131,3.982Z" transform="translate(-479.071 -450.038)" fill="#7f654f" fill-rule="evenodd"/>
      <path id="Path_216" data-name="Path 216" d="M517.647,515.274l-2.622-3.763.977-3.628,2.277,2.946-.632,4.445Zm0-.05-1.684-7.411" transform="translate(-477.667 -450.287)" fill="none" stroke="#7f654f" stroke-miterlimit="2.613" stroke-width="0.17"/>
      <path id="Path_217" data-name="Path 217" d="M517.621,515.183l-1.651-7.318-.95,3.626,2.6,3.692Z" transform="translate(-477.671 -450.246)" fill="#7f654f" fill-rule="evenodd"/>
      <path id="Path_218" data-name="Path 218" d="M519.784,514.6l-3.06-3.416.527-3.721,2.619,2.647-.086,4.49Zm-.005-.052L517.2,507.4" transform="translate(-476.341 -450.606)" fill="none" stroke="#7f654f" stroke-miterlimit="2.613" stroke-width="0.17"/>
      <path id="Path_219" data-name="Path 219" d="M519.752,514.518l-2.531-7.062-.5,3.715,3.032,3.347Z" transform="translate(-476.344 -450.566)" fill="#7f654f" fill-rule="evenodd"/>
      <path id="Path_220" data-name="Path 220" d="M521.914,513.7l-3.455-3.017.071-3.758,2.921,2.309.463,4.467Zm-.012-.048-3.425-6.784" transform="translate(-474.988 -451.021)" fill="none" stroke="#7f654f" stroke-miterlimit="2.613" stroke-width="0.17"/>
      <path id="Path_221" data-name="Path 221" d="M521.874,513.623l-3.372-6.7-.044,3.749,3.417,2.953Z" transform="translate(-474.989 -450.981)" fill="#7f654f" fill-rule="evenodd"/>
      <path id="Path_222" data-name="Path 222" d="M524.092,512.471l-3.8-2.574-.386-3.737,3.179,1.935,1,4.376Zm-.018-.046-4.228-6.316" transform="translate(-473.905 -451.617)" fill="none" stroke="#7f654f" stroke-miterlimit="2.613" stroke-width="0.17"/>
      <path id="Path_223" data-name="Path 223" d="M524.031,512.4l-4.164-6.24.413,3.726,3.751,2.514Z" transform="translate(-473.89 -451.579)" fill="#7f654f" fill-rule="evenodd"/>
      <path id="Path_224" data-name="Path 224" d="M526.144,511l-4.082-2.094-.84-3.662,3.393,1.533L526.144,511Zm-.023-.044-4.965-5.754" transform="translate(-472.883 -452.328)" fill="none" stroke="#7f654f" stroke-miterlimit="2.613" stroke-width="0.17"/>
      <path id="Path_225" data-name="Path 225" d="M526.075,510.929l-4.894-5.686.864,3.648,4.03,2.039Z" transform="translate(-472.863 -452.292)" fill="#7f654f" fill-rule="evenodd"/>
      <path id="Path_226" data-name="Path 226" d="M528.014,509.349l-4.306-1.579-1.282-3.534,3.555,1.109,2.033,4Zm-.03-.041-5.629-5.106" transform="translate(-471.948 -453.104)" fill="none" stroke="#7f654f" stroke-miterlimit="2.613" stroke-width="0.17"/>
      <path id="Path_227" data-name="Path 227" d="M527.937,509.291l-5.55-5.048,1.3,3.516,4.248,1.532Z" transform="translate(-471.924 -453.071)" fill="#7f654f" fill-rule="evenodd"/>
      <path id="Path_228" data-name="Path 228" d="M529.449,507.843l-4.381-1.36-1.458-3.462,3.607.926,2.232,3.9Zm-.03-.041-5.882-4.814" transform="translate(-471.026 -454.051)" fill="none" stroke="#7f654f" stroke-miterlimit="2.613" stroke-width="0.17"/>
      <path id="Path_229" data-name="Path 229" d="M529.369,507.788l-5.8-4.76,1.479,3.445,4.321,1.315Z" transform="translate(-471 -454.02)" fill="#7f654f" fill-rule="evenodd"/>
      <path id="Path_230" data-name="Path 230" d="M530.849,505.886l-4.5-.892-1.812-3.293,3.683.545,2.629,3.641Zm-.036-.036-6.352-4.173" transform="translate(-470.304 -455.073)" fill="none" stroke="#7f654f" stroke-miterlimit="2.613" stroke-width="0.17"/>
      <path id="Path_231" data-name="Path 231" d="M530.763,505.842l-6.265-4.128,1.831,3.272,4.434.856Z" transform="translate(-470.276 -455.045)" fill="#7f654f" fill-rule="evenodd"/>
      <path id="Path_232" data-name="Path 232" d="M532.041,503.874l-4.568-.418-2.147-3.085,3.721.157,2.994,3.347Zm-.037-.032-6.754-3.486" transform="translate(-469.69 -456.105)" fill="none" stroke="#7f654f" stroke-miterlimit="2.613" stroke-width="0.17"/>
      <path id="Path_233" data-name="Path 233" d="M531.952,503.838l-6.662-3.45,2.162,3.062,4.5.388Z" transform="translate(-469.658 -456.08)" fill="#7f654f" fill-rule="evenodd"/>
      <path id="Path_234" data-name="Path 234" d="M533.058,501.677l-4.584.142-2.507-2.8,3.712-.3,3.379,2.957Zm-.043-.029-7.126-2.636" transform="translate(-469.19 -457.381)" fill="none" stroke="#7f654f" stroke-miterlimit="2.613" stroke-width="0.17"/>
      <path id="Path_235" data-name="Path 235" d="M532.966,501.524l-7.033-2.612,2.519,2.776,4.513-.164Z" transform="translate(-469.156 -457.232)" fill="#7f654f" fill-rule="evenodd"/>
      <path id="Path_236" data-name="Path 236" d="M533.727,499.616l-4.532.7-2.829-2.474,3.648-.748,3.714,2.523Zm-.045-.023-7.4-1.748" transform="translate(-468.881 -458.651)" fill="none" stroke="#7f654f" stroke-miterlimit="2.613" stroke-width="0.17"/>
      <path id="Path_237" data-name="Path 237" d="M533.633,499.273l-7.3-1.736,2.839,2.449,4.46-.713Z" transform="translate(-468.843 -458.304)" fill="#7f654f" fill-rule="evenodd"/>
      <path id="Path_238" data-name="Path 238" d="M534.2,497.35l-4.413,1.246-3.11-2.109,3.528-1.187,3.995,2.051Zm-.048-.018L526.6,496.5" transform="translate(-468.636 -460.05)" fill="none" stroke="#7f654f" stroke-miterlimit="2.613" stroke-width="0.17"/>
      <path id="Path_239" data-name="Path 239" d="M534.1,496.823l-7.455-.834,3.116,2.084,4.339-1.25Z" transform="translate(-468.597 -459.512)" fill="#7f654f" fill-rule="evenodd"/>
      <path id="Path_240" data-name="Path 240" d="M534.4,495.042l-4.23,1.775-3.343-1.716,3.358-1.608,4.216,1.549Zm-.05-.011-7.6.093" transform="translate(-468.519 -461.46)" fill="none" stroke="#7f654f" stroke-miterlimit="2.613" stroke-width="0.17"/>
      <path id="Path_241" data-name="Path 241" d="M534.3,494.373l-7.5.082,3.347,1.688,4.155-1.77Z" transform="translate(-468.479 -460.773)" fill="#7f654f" fill-rule="evenodd"/>
      <path id="Path_242" data-name="Path 242" d="M534.32,492.938l-4.07,2.117-3.473-1.435,3.215-1.88,4.328,1.2Zm-.05-.007-7.566.717" transform="translate(-468.555 -462.827)" fill="none" stroke="#7f654f" stroke-miterlimit="2.613" stroke-width="0.17"/>
      <path id="Path_243" data-name="Path 243" d="M534.226,492.426l-7.47.7,3.474,1.408,4-2.105Z" transform="translate(-468.514 -462.292)" fill="#7f654f" fill-rule="evenodd"/>
      <path id="Path_244" data-name="Path 244" d="M533.915,490.644l-3.781,2.6-3.623-1,2.962-2.256,4.442.66Zm-.05,0-7.424,1.634" transform="translate(-468.759 -464.197)" fill="none" stroke="#7f654f" stroke-miterlimit="2.613" stroke-width="0.17"/>
      <path id="Path_245" data-name="Path 245" d="M533.823,490.371l-7.329,1.6,3.62.974,3.709-2.576Z" transform="translate(-468.718 -463.895)" fill="#7f654f" fill-rule="evenodd"/>
      <path id="Path_246" data-name="Path 246" d="M533.353,488.433l-3.438,3.039-3.717-.554,2.665-2.6,4.49.116Zm-.05.005-7.169,2.526" transform="translate(-468.999 -465.498)" fill="none" stroke="#7f654f" stroke-miterlimit="2.613" stroke-width="0.17"/>
      <path id="Path_247" data-name="Path 247" d="M533.265,488.4l-7.079,2.484,3.712.525,3.367-3.01Z" transform="translate(-468.959 -465.432)" fill="#7f654f" fill-rule="evenodd"/>
      <path id="Path_248" data-name="Path 248" d="M532.552,486.516l-3.142,3.343-3.753-.207,2.414-2.836,4.481-.3Zm-.05.011L525.6,489.7" transform="translate(-469.418 -466.903)" fill="none" stroke="#7f654f" stroke-miterlimit="2.613" stroke-width="0.17"/>
      <path id="Path_249" data-name="Path 249" d="M532.468,486.538l-6.82,3.127,3.744.181,3.076-3.307Z" transform="translate(-469.378 -466.886)" fill="#7f654f" fill-rule="evenodd"/>
      <path id="Path_250" data-name="Path 250" d="M531.564,484.77l-2.886,3.566-3.758.071,2.2-3.007,4.447-.63Zm-.05.014-6.649,3.678" transform="translate(-469.989 -468.266)" fill="none" stroke="#7f654f" stroke-miterlimit="2.613" stroke-width="0.17"/>
      <path id="Path_251" data-name="Path 251" d="M531.484,484.794l-6.57,3.622,3.747-.1,2.823-3.525Z" transform="translate(-469.951 -468.247)" fill="#7f654f" fill-rule="evenodd"/>
      <path id="Path_252" data-name="Path 252" d="M530.232,483.076l-2.432,3.89-3.721.529,1.816-3.252,4.337-1.166Zm-.046.018-6.154,4.461" transform="translate(-470.64 -469.587)" fill="none" stroke="#7f654f" stroke-miterlimit="2.613" stroke-width="0.17"/>
      <path id="Path_253" data-name="Path 253" d="M530.158,483.1l-6.08,4.4,3.708-.553,2.372-3.843Z" transform="translate(-470.603 -469.567)" fill="#7f654f" fill-rule="evenodd"/>
      <path id="Path_254" data-name="Path 254" d="M528.651,481.464l-1.939,4.159-3.628.977,1.4-3.448,4.162-1.688Zm-.044.027-5.563,5.177" transform="translate(-471.411 -470.845)" fill="none" stroke="#7f654f" stroke-miterlimit="2.613" stroke-width="0.17"/>
      <path id="Path_255" data-name="Path 255" d="M528.586,481.493l-5.5,5.1,3.613-1,1.886-4.1Z" transform="translate(-471.376 -470.822)" fill="#7f654f" fill-rule="evenodd"/>
      <path id="Path_256" data-name="Path 256" d="M526.867,480.044l-1.415,4.363-3.482,1.412.974-3.594,3.924-2.181Zm-.039.03-4.892,5.816" transform="translate(-472.275 -471.953)" fill="none" stroke="#7f654f" stroke-miterlimit="2.613" stroke-width="0.17"/>
      <path id="Path_257" data-name="Path 257" d="M526.813,480.074l-4.836,5.736,3.464-1.433,1.372-4.3Z" transform="translate(-472.243 -471.929)" fill="#7f654f" fill-rule="evenodd"/>
      <path id="Path_258" data-name="Path 258" d="M524.93,478.751l-.874,4.5-3.285,1.827.529-3.687,3.63-2.644Zm-.037.036-4.144,6.37" transform="translate(-473.202 -472.962)" fill="none" stroke="#7f654f" stroke-miterlimit="2.613" stroke-width="0.17"/>
      <path id="Path_259" data-name="Path 259" d="M524.885,478.783l-4.1,6.282,3.263-1.844.837-4.438Z" transform="translate(-473.173 -472.937)" fill="#7f654f" fill-rule="evenodd"/>
      <path id="Path_260" data-name="Path 260" d="M522.883,477.719l-.32,4.577-3.037,2.213.076-3.723,3.281-3.067Zm-.034.039-3.336,6.827" transform="translate(-474.165 -473.767)" fill="none" stroke="#7f654f" stroke-miterlimit="2.613" stroke-width="0.17"/>
      <path id="Path_261" data-name="Path 261" d="M522.849,477.752l-3.3,6.735,3.015-2.228.29-4.507Z" transform="translate(-474.141 -473.741)" fill="#7f654f" fill-rule="evenodd"/>
      <path id="Path_262" data-name="Path 262" d="M521.188,476.9l-.319,4.575-3.037,2.213.075-3.722,3.281-3.066Zm-.032.039-3.338,6.827" transform="translate(-475.488 -474.403)" fill="none" stroke="#7f654f" stroke-miterlimit="2.613" stroke-width="0.17"/>
      <path id="Path_263" data-name="Path 263" d="M521.155,476.936l-3.3,6.735,3.015-2.228.29-4.507Z" transform="translate(-475.463 -474.378)" fill="#7f654f" fill-rule="evenodd"/>
      <path id="Path_264" data-name="Path 264" d="M519.077,476.211l.24,4.581-2.745,2.567-.379-3.7,2.884-3.443Zm-.027.043-2.482,7.183" transform="translate(-476.756 -474.944)" fill="none" stroke="#7f654f" stroke-miterlimit="2.613" stroke-width="0.17"/>
      <path id="Path_265" data-name="Path 265" d="M518.889,476.244l-2.459,7.088,2.72-2.579-.261-4.508Z" transform="translate(-476.571 -474.918)" fill="#7f654f" fill-rule="evenodd"/>
      <path id="Path_266" data-name="Path 266" d="M516.82,475.743l.8,4.516-2.412,2.882-.828-3.63,2.443-3.769Zm-.021.044-1.588,7.432" transform="translate(-478.172 -475.309)" fill="none" stroke="#7f654f" stroke-miterlimit="2.613" stroke-width="0.17"/>
      <path id="Path_267" data-name="Path 267" d="M516.443,475.776l-1.577,7.335,2.386-2.892-.809-4.443Z" transform="translate(-477.791 -475.283)" fill="#7f654f" fill-rule="evenodd"/>
      <path id="Path_268" data-name="Path 268" d="M515.764,493.69c.477.376,1.837,1.834,2.444,1.449.345-.219,1.17-.935.732-1.565-.251-.361-.8.507-1.259.468-.491-.043-.278-.7-.117-.908.087-.112.482-.356.5-.5.044-.42-.716-.7-.247-1.024.693-.482.523-.032,1.082.1.3,0,.559-.609.819-.79.29-.2.42-.336.748-.073.449.361-.166.984-.4,1.214-.5.5-.089.628-.089,1.141a2.824,2.824,0,0,1-.4,2.019c-.132.171-.333.539-.628.571-.411.043-.294.345-.294.721l2.284,1.225-7.01-.029,1.654-.951h2.035v-.63a2.3,2.3,0,0,1-2.108-.819c-.223-.223-.125-.518-.077-.9.037-.3-.061-.73.326-.725Z" transform="translate(-478.518 -463.634)" fill="#7f654f" fill-rule="evenodd"/>
      <path id="Path_269" data-name="Path 269" d="M510.219,490.858l3.292,3.173-3.268,3.271-3.439-3.271,3.415-3.173Z" transform="translate(-484.081 -463.515)" fill="none" stroke="#7f654f" stroke-miterlimit="2.613" stroke-width="0.17"/>
      <line id="Line_7" data-name="Line 7" x2="6.658" transform="translate(22.822 30.516)" fill="none" stroke="#7f654f" stroke-miterlimit="2.613" stroke-width="0.176"/>
      <line id="Line_8" data-name="Line 8" y1="6.369" transform="translate(26.155 27.343)" fill="none" stroke="#7f654f" stroke-miterlimit="2.613" stroke-width="0.175"/>
      <path id="Path_270" data-name="Path 270" d="M509.809,491.439l2.236,2.163-2.293,2.345-2.327-2.345m2.334-1.18,1.328,1.132-1.328,1.278-1.2-1.253" transform="translate(-483.597 -463.062)" fill="none" stroke="#7f654f" stroke-miterlimit="2.613" stroke-width="0.17"/>
      <path id="Path_271" data-name="Path 271" d="M509.116,497.032h3.706l1.4,1.006-3.307,3.019-3.042-2.966,1.243-1.059Z" transform="translate(-483.247 -458.698)" fill="none" stroke="#7f654f" stroke-miterlimit="2.613" stroke-width="0.283"/>
      <line id="Line_9" data-name="Line 9" x2="6.296" transform="translate(24.705 39.366)" fill="none" stroke="#7f654f" stroke-miterlimit="2.613" stroke-width="0.289"/>
      <path id="Path_272" data-name="Path 272" d="M513.386,497.142a2.691,2.691,0,0,1,3.094.424c1.057-.532,2.1-.911,3.016-.238q-.264,1.746-.529,3.5a1.941,1.941,0,0,0-1.535-.159,1.235,1.235,0,0,1-1.956-.028,2.853,2.853,0,0,0-1.878,0q-.107-1.746-.212-3.495Zm3.094.45-.027,3.47" transform="translate(-478.946 -458.862)" fill="none" stroke="#7f654f" stroke-miterlimit="2.613" stroke-width="0.283"/>
      <path id="Path_273" data-name="Path 273" d="M531.467,490.926H519.653v8.757h10.655a20,20,0,0,0,1.159-8.757Zm-25.2,0h11.812v8.757H507.427a20,20,0,0,1-1.157-8.757Zm11.812,10.249H508.011c1.462,4.572,4.632,8.289,10.071,10.87v-10.87ZM504.4,489.308H533.3c.393,12.6-4.8,21.231-14.477,24.813-10.288-3.439-14.3-12.412-14.415-24.813Zm15.253,11.867H529.73c-1.462,4.572-4.632,8.289-10.073,10.87v-10.87Z" transform="translate(-485.954 -464.725)" fill="#7f654f" fill-rule="evenodd"/>
      <path id="Path_274" data-name="Path 274" d="M515.525,485.816c3.559-2.078,5.9,1.406,3.2,4.29h-7.8c-3.021-2.9.18-6.263,3.007-4.29Z" transform="translate(-481.822 -467.941)" fill="#7f654f" fill-rule="evenodd"/>
      <path id="Path_275" data-name="Path 275" d="M510.649,488.248H518a.425.425,0,0,1,.452.388v.287a.425.425,0,0,1-.452.388h-7.351a.425.425,0,0,1-.452-.388v-.287a.425.425,0,0,1,.452-.388Z" transform="translate(-481.434 -465.552)" fill="none" stroke="#7f654f" stroke-miterlimit="2.613" stroke-width="0.294"/>
      <path id="Path_276" data-name="Path 276" d="M512.835,484.567h0c.4,0,.726.632.726,1.4v2.254c0,.771-.328,1.4-.726,1.4h0c-.4,0-.728-.63-.728-1.4V485.97c0-.771.328-1.4.728-1.4Z" transform="translate(-479.944 -468.424)" fill="none" stroke="#7f654f" stroke-miterlimit="2.613" stroke-width="0.29"/>
      <path id="Path_277" data-name="Path 277" d="M507.56,520.46a1.692,1.692,0,0,1-.573-.906,1.2,1.2,0,0,1,.192-.961l.538.466a.654.654,0,0,0-.059.491.916.916,0,0,0,.294.436.756.756,0,0,0,.737.185,1.459,1.459,0,0,0,.721-.474,1.359,1.359,0,0,0,.368-.806.813.813,0,0,0-.308-.707.8.8,0,0,0-1.111.005l.584.506-.381.438-1.063-.924,1.2-1.385.352.306-.2.36a2.163,2.163,0,0,1,.543-.009,1.091,1.091,0,0,1,.525.288,1.488,1.488,0,0,1,.548,1.118,1.914,1.914,0,0,1-.552,1.326,1.689,1.689,0,0,1-1.2.648,1.583,1.583,0,0,1-1.162-.4Zm.687-4.118-2.676,2.088-1.494-1.912.465-.363,1.07,1.371.573-.447-.977-1.251.458-.358.977,1.252.687-.536-1.123-1.437.493-.386,1.547,1.98Zm-5.49-2.006,2-1.775-2.606.577-.47-.922,3.025-1.542.3.584-2.439,1.242,2.752-.63.326.639-2.124,1.866,2.441-1.244.3.584-3.023,1.54-.468-.919Zm1.387-5.891a1.522,1.522,0,0,1-.146,1.3,1.851,1.851,0,0,1-1.109.781,1.87,1.87,0,0,1-1.364-.073,1.522,1.522,0,0,1-.814-1.025,1.554,1.554,0,0,1,.139-1.314,1.892,1.892,0,0,1,1.123-.78,1.861,1.861,0,0,1,1.353.069,1.548,1.548,0,0,1,.817,1.04Zm-1.976-.429a1.358,1.358,0,0,0-.764.484.865.865,0,0,0-.11.773.817.817,0,0,0,.5.563,1.349,1.349,0,0,0,.9.007,1.412,1.412,0,0,0,.73-.456.8.8,0,0,0,.142-.78.814.814,0,0,0-.525-.595,1.415,1.415,0,0,0-.872,0Zm-1.978-1.454-.048-.7,2.761-.194-.116-1.654.625-.044.164,2.352-3.386.237Zm3.42-4.605a1.528,1.528,0,0,1-.6,1.163,1.847,1.847,0,0,1-1.317.331,1.871,1.871,0,0,1-1.246-.556,1.527,1.527,0,0,1-.392-1.25,1.555,1.555,0,0,1,.6-1.177,1.891,1.891,0,0,1,1.328-.326,1.865,1.865,0,0,1,1.239.55,1.55,1.55,0,0,1,.39,1.264Zm-1.691-1.109a1.352,1.352,0,0,0-.887.178.866.866,0,0,0-.381.682.822.822,0,0,0,.265.7,1.358,1.358,0,0,0,.837.329,1.416,1.416,0,0,0,.846-.164.8.8,0,0,0,.411-.678.809.809,0,0,0-.276-.742,1.415,1.415,0,0,0-.815-.31ZM500.9,497.31a1.7,1.7,0,0,1,.595-.892,1.192,1.192,0,0,1,.956-.215l-.208.68a.664.664,0,0,0-.472.146.922.922,0,0,0-.28.447.758.758,0,0,0,.13.75,1.459,1.459,0,0,0,.726.465,1.362,1.362,0,0,0,.887.009.815.815,0,0,0,.522-.57.8.8,0,0,0-.456-1.011l-.226.739-.555-.171.413-1.346,1.754.536-.137.447-.408-.036a2.231,2.231,0,0,1,.23.493,1.081,1.081,0,0,1-.05.6,1.5,1.5,0,0,1-.8.956,1.9,1.9,0,0,1-1.435.036,1.684,1.684,0,0,1-1.082-.833,1.593,1.593,0,0,1-.1-1.225Zm.986-2.446.294-.634,3.076,1.435-.294.632-3.076-1.433Zm2.14-.737a1.885,1.885,0,0,1-.871-1.084,1.5,1.5,0,0,1,.237-1.237,1.7,1.7,0,0,1,.871-.742,1.1,1.1,0,0,1,.967.157l-.376.577a.673.673,0,0,0-.522-.029.94.94,0,0,0-.413.379.742.742,0,0,0-.089.748,1.541,1.541,0,0,0,.584.635,1.412,1.412,0,0,0,.8.249.74.74,0,0,0,.652-.369.851.851,0,0,0,.16-.543.8.8,0,0,0-.246-.479l.372-.573a1.119,1.119,0,0,1,.534.83,1.652,1.652,0,0,1-.308,1.116,1.474,1.474,0,0,1-1.034.712,1.875,1.875,0,0,1-1.321-.347Zm2.143-5.727,3.293,1.476-.507.525-.666-.313-.913.945.347.644-.511.527-1.6-3.226.559-.579Zm.924,2.1.655-.678-1.369-.666.714,1.344Zm.76-3.717.557-.42,1.666,2.211,1.325-1,.376.5L509.9,489.5l-2.042-2.71Zm3.849-2.629.621-.317,1.54,3.025-.621.317-1.54-3.025Zm2.467-1.17,2.036,1.8-.723-2.223.653-.214,1.05,3.228-.685.223-2.042-1.784.719,2.215-.653.212-1.049-3.228.693-.226Zm3.888-.16c.027.164.271.264.735.3a6.031,6.031,0,0,1,1.061.158c.24.075.39.3.449.666a1.09,1.09,0,0,1-.187.831,1.407,1.407,0,0,1-.976.483,1.381,1.381,0,0,1-1.13-.183,1.145,1.145,0,0,1-.44-.726l.68-.109a.7.7,0,0,0,.287.365.837.837,0,0,0,.582.06.739.739,0,0,0,.409-.178.358.358,0,0,0,.116-.333c-.032-.2-.29-.32-.773-.365a6.159,6.159,0,0,1-1.05-.153c-.219-.06-.356-.285-.418-.669a.947.947,0,0,1,.214-.835,1.752,1.752,0,0,1,1.948-.235,1.113,1.113,0,0,1,.4.687l-.666.1a.53.53,0,0,0-.255-.34.858.858,0,0,0-.522-.043.557.557,0,0,0-.394.192.436.436,0,0,0-.075.322Zm2.647-.716v-.605h2.706v.605h-1V484.9h-.7v-2.788Zm3.786-.522.691.1-.474,3.361-.691-.1.474-3.361Zm1.253.734.126-.593,2.647.563-.127.593-.981-.21-.58,2.729-.682-.146.58-2.727-.984-.208Zm4.648.689-.865,1.946a1.562,1.562,0,0,0-.112.329.419.419,0,0,0,.027.263.551.551,0,0,0,.158.219.761.761,0,0,0,.215.144.84.84,0,0,0,.264.073.543.543,0,0,0,.255-.028.49.49,0,0,0,.226-.169,1.693,1.693,0,0,0,.167-.3l.867-1.948.641.287-.9,2.015a1.244,1.244,0,0,1-.717.728,1.678,1.678,0,0,1-1.825-.812,1.221,1.221,0,0,1,.057-1.024l.9-2.015.643.287Zm2.289,1.714.32-.513,2.295,1.433-.32.514-.851-.532L532.651,488l-.591-.37,1.477-2.366-.853-.532Zm1.307,4.136,2.314-2.483,1.775,1.656-.4.431-1.271-1.186-.5.532,1.162,1.082-.4.424-1.163-1.082-.593.637,1.332,1.243-.425.459-1.837-1.713Zm3.906,4.525a1.531,1.531,0,0,1-.242-1.289,2.082,2.082,0,0,1,2.158-1.4,1.522,1.522,0,0,1,1.079.742,1.548,1.548,0,0,1,.251,1.3,1.888,1.888,0,0,1-.845,1.073,1.86,1.86,0,0,1-1.316.331,1.549,1.549,0,0,1-1.084-.755Zm2.015-.169a1.343,1.343,0,0,0,.587-.685.861.861,0,0,0-.119-.771.82.82,0,0,0-.641-.394,1.357,1.357,0,0,0-.863.256,1.426,1.426,0,0,0-.566.65.807.807,0,0,0,.093.789.815.815,0,0,0,.676.413,1.41,1.41,0,0,0,.833-.258Zm2.27.555,1,2.147-.534.249-.712-1.524-.7.326.623,1.337-.534.249-.623-1.337-1.307.611-.292-.623,3.076-1.435Zm2,6.231-3.13,1.8-.126-.719.644-.354-.228-1.294-.724-.1-.128-.723,3.552.6.141.792Zm-2.245-.488.162.928,1.344-.716-1.506-.212Zm2.56,3.918-2.585.675,2.585.669v1.034H541.1v-.653h2.738l-2.738-.687v-.718l2.738-.7H541.1v-.653H544.5v1.031Zm-3.649,3.156,3.332.648-.463,2.382-.579-.112.331-1.707-.714-.139-.3,1.56-.57-.11.3-1.56-.854-.166-.349,1.789-.614-.119.479-2.466Zm-1,3.913.283-.637,3.1,1.381-.669,1.5a1.273,1.273,0,0,1-.531.639.819.819,0,0,1-.757-.018,1.067,1.067,0,0,1-.434-.322.676.676,0,0,1-.132-.481.587.587,0,0,1-.425.189,2.612,2.612,0,0,1-.766-.253.824.824,0,0,0-.264-.082.261.261,0,0,0-.167.044l-.094-.043.311-.7a2.5,2.5,0,0,1,.714.237.489.489,0,0,0,.734-.247l.3-.675-1.205-.536Zm1.41,1.524a.6.6,0,0,0-.055.393.4.4,0,0,0,.256.269.416.416,0,0,0,.358.014.515.515,0,0,0,.251-.281l.347-.776-.824-.367-.333.748Zm.367,2.5-.327.616-3-1.593.328-.616,3,1.593Zm-2.287.669a1.9,1.9,0,0,1,.755,1.168,1.508,1.508,0,0,1-.365,1.207,1.7,1.7,0,0,1-.943.646,1.1,1.1,0,0,1-.945-.254l.433-.536a.674.674,0,0,0,.516.084.963.963,0,0,0,.45-.333.744.744,0,0,0,.167-.737,1.541,1.541,0,0,0-.514-.691,1.418,1.418,0,0,0-.773-.333.741.741,0,0,0-.686.3.843.843,0,0,0-.217.523.8.8,0,0,0,.194.5l-.431.531a1.119,1.119,0,0,1-.443-.881,1.643,1.643,0,0,1,.422-1.077,1.467,1.467,0,0,1,1.1-.6,1.868,1.868,0,0,1,1.276.482Zm-2.628,5.376-3.183-1.7.543-.488.642.36.976-.88-.3-.667.545-.491,1.374,3.331-.6.538Zm-.776-2.163-.7.63,1.319.76-.62-1.39Z" transform="translate(-489.355 -470.811)" fill="#7f654f"/>
      <path id="Path_278" data-name="Path 278" d="M506.284,504.2a.466.466,0,0,1,.249-.2.38.38,0,0,1,.333.039.427.427,0,0,1-.1.785.429.429,0,0,1-.484-.62Zm2.311-.166.408.19-.381.817,1.159-.454.509.237-1.17.434.315,1.584-.5-.233-.226-1.209-.31.11-.324.7-.409-.191.926-1.985Zm2.273.958.352,1.716.491-1.426.42.144-.714,2.072-.44-.151-.358-1.714-.49,1.422-.42-.144.712-2.072.445.153Zm1.976,2.87a.984.984,0,0,1-.687-.489,1.188,1.188,0,0,1-.094-.871,1.208,1.208,0,0,1,.468-.748.982.982,0,0,1,.833-.139,1.01,1.01,0,0,1,.7.49,1.227,1.227,0,0,1,.089.879,1.209,1.209,0,0,1-.463.742,1,1,0,0,1-.844.135Zm.862-.981a.873.873,0,0,0-.034-.584.558.558,0,0,0-.4-.3.526.526,0,0,0-.474.107.866.866,0,0,0-.285.506.911.911,0,0,0,.028.555.515.515,0,0,0,.4.324.521.521,0,0,0,.5-.112.9.9,0,0,0,.271-.491Zm.523-.977.465.041.239,1.574.45-1.513.481.043.18,1.567.509-1.508.459.041-.814,2.127-.429-.037-.192-1.7-.486,1.643-.427-.037-.434-2.238Zm2.968.2.45-.016.061,1.786,1.072-.037.014.4-1.52.053-.077-2.19Zm1.926,2.167-.3-2.17,1.551-.217.052.376-1.111.157.066.465,1.017-.142.052.37-1.016.142.078.557,1.166-.164.055.4-1.6.226Zm3.676-1.777a1.129,1.129,0,0,1-.06.86.987.987,0,0,1-.643.441l-.835.208-.531-2.125.879-.219a.925.925,0,0,1,.741.089,1.156,1.156,0,0,1,.449.746Zm-.856.931a.55.55,0,0,0,.411-.283.863.863,0,0,0,0-.536,1.025,1.025,0,0,0-.239-.481.462.462,0,0,0-.461-.084l-.4.1.342,1.371.349-.089Zm1.7-2.368a1.089,1.089,0,0,1,.691-.029.765.765,0,0,1,.475.417l-.434.149a.433.433,0,0,0-.255-.19.609.609,0,0,0-.34.023.494.494,0,0,0-.342.352.926.926,0,0,0,.034.556.871.871,0,0,0,.331.468.526.526,0,0,0,.495.055.519.519,0,0,0,.356-.621l-.472.162-.123-.354.86-.3.386,1.12-.286.1-.135-.226a1.5,1.5,0,0,1-.171.308.7.7,0,0,1-.329.2.961.961,0,0,1-.8-.055,1.225,1.225,0,0,1-.562-.735,1.081,1.081,0,0,1,.025-.881,1.022,1.022,0,0,1,.6-.518Zm2.054,1.689-.926-1.987,1.419-.66.16.344-1.016.474.2.427.929-.434.159.34-.931.433.239.509,1.066-.5.171.367-1.469.685Zm2.165-2.1a.451.451,0,0,1-.054-.319.377.377,0,0,1,.2-.269.421.421,0,0,1,.589.155.4.4,0,0,1,.041.322.425.425,0,0,1-.52.3.39.39,0,0,1-.256-.19Z" transform="translate(-484.528 -453.285)" fill="#7f654f"/>
    </g>
    <g id="Group_96" data-name="Group 96" transform="translate(77.208)">
      <path id="Path_279" data-name="Path 279" d="M605.669,532.1c0-4.823.1-7.472,4.3-7.945l1.6-.188a1.588,1.588,0,0,0-.1-2.365c-3.3.188-6.7.285-10.594.285-5.9,0-11.395-.1-14.294-.285a1.526,1.526,0,0,0,0,2.365l4.4.472c6.2.663,6.5,1.229,6.5,9.174V537.4c0,3.024-.5,4.726-1,5.389-1.1,1.608-4.8,2.837-10.994,2.837-20.09,0-29.986-14.278-29.986-32.439,0-14.188,8.5-27.24,27.888-27.24,10.193,0,17.691,3.216,20.49,13.431.6.566,2.4.472,2.7-.285a101.111,101.111,0,0,1-1.5-13.712c-1.2.188-4.3-.476-6.2-.854a63.213,63.213,0,0,0-12.693-1.417c-15.095,0-24.988,4.445-31.685,11.066a31.478,31.478,0,0,0-9,22.414,28.957,28.957,0,0,0,9.2,21.469c7.694,7.378,18.592,10.516,30.483,10.516A81.232,81.232,0,0,0,603.07,546.1a23.594,23.594,0,0,1,4.9-.851.751.751,0,0,0,.1-1.135c-1.8-.66-2.4-2.931-2.4-6.712v-5.3Z" transform="translate(-545.5 -483.114)" fill="#1a1818"/>
      <path id="Path_280" data-name="Path 280" d="M580.2,531.838c0,10.025-.2,11.348-6.1,12.011l-2.5.282a1.789,1.789,0,0,0,.2,2.383c5-.191,8.4-.285,12.592-.285,4,0,7.4.094,12.4.285.6-.3.8-2,.2-2.383l-2.5-.282c-5.9-.663-6.1-1.986-6.1-12.011V498.167c0-10.025.2-11.632,6.1-12.108l2.5-.188c.6-.378.4-2.08-.2-2.365-5,.188-8.4.285-12.4.285-4.2,0-7.6-.1-12.592-.285-.6.285-.8,1.986-.2,2.365l2.5.188c5.9.475,6.1,2.083,6.1,12.108v33.671Z" transform="translate(-490.737 -482.278)" fill="#1a1818"/>
      <path id="Path_281" data-name="Path 281" d="M629.752,537.969a18.5,18.5,0,0,1,1.3,5.014c0,.945-1.4,1.511-3.5,1.7l-2.9.282a1.555,1.555,0,0,0,.2,2.383c2.9-.1,6.7-.285,11.495-.285,4.5,0,7.995.094,12.1.285.5-.394.7-1.908,0-2.383l-2.7-.282c-4.3-.472-5.6-1.892-8.5-10.025l-13.693-38.022c-1.5-4.16-3.1-8.511-4.4-12.674a1.431,1.431,0,0,0-1.5-.851,11.174,11.174,0,0,1-5.2,3.594c.3,1.514-.3,3.309-1.7,6.715l-10.2,25.535c-4.2,10.594-7,16.74-8.8,21.091-1.4,3.406-3.6,4.445-6,4.635l-3.315.282a1.81,1.81,0,0,0,.2,2.383c2.715-.1,6.312-.285,9.612-.285,4.7.094,7.8.094,10.394.285a1.49,1.49,0,0,0,.2-2.383l-3.3-.282c-2.4-.191-2.9-.757-2.9-1.892,0-1.038.7-3.594,2.2-7.851l3.5-9.931c.7-1.986,1.3-2.268,3.8-2.268h15.092c3,0,3.4.281,4.1,2.365l4.4,12.862Zm-17.891-37.737a55.4,55.4,0,0,1,2.4-5.58h.2a60.216,60.216,0,0,1,2.3,5.958l5.4,15.417c.9,2.552.7,2.931-2.2,2.931H607.663c-2.8,0-2.9-.094-2.1-2.271l6.3-16.455Z" transform="translate(-467.629 -483.114)" fill="#1a1818"/>
    </g>
    <path id="Path_282" data-name="Path 282" d="M709.073,511.741a3.716,3.716,0,0,1-1.831,3.209,3.545,3.545,0,0,1-1.834.5,3.509,3.509,0,0,1-1.822-.5,3.71,3.71,0,0,1-1.819-3.209,3.738,3.738,0,0,1,.28-1.446,3.79,3.79,0,0,1,.788-1.2,3.63,3.63,0,0,1,1.168-.809,3.474,3.474,0,0,1,1.406-.289,3.519,3.519,0,0,1,1.836.5,3.767,3.767,0,0,1,1.829,3.241Zm-6.7,0a3.114,3.114,0,0,0,.886,2.186,3.016,3.016,0,0,0,.975.67,3,3,0,0,0,2.351,0,3.02,3.02,0,0,0,.978-.67,3.073,3.073,0,0,0,.654-.994,3.192,3.192,0,0,0-.176-2.76,3.044,3.044,0,0,0-1.107-1.138,2.986,2.986,0,0,0-3.049,0,3.09,3.09,0,0,0-1.1,1.138,3.145,3.145,0,0,0-.407,1.568Zm1.718-1.913h1.721a1.02,1.02,0,0,1,.776.3,1.106,1.106,0,0,1,.284.8,1.029,1.029,0,0,1-.11.512,1.167,1.167,0,0,1-.4.371.724.724,0,0,1,.2.092c.151.122.235.479.254,1.069l.009.233a.562.562,0,0,0,.155.428v.1h-.6a1.478,1.478,0,0,1-.1-.621v-.181a1.664,1.664,0,0,0-.1-.614c-.08-.167-.261-.251-.548-.251h-1.02v1.667h-.519v-3.907Zm.519,1.782h1.112a.583.583,0,0,0,.442-.188.666.666,0,0,0,.179-.475.7.7,0,0,0-.164-.463.476.476,0,0,0-.376-.2h-1.192v1.326Z" transform="translate(-453.53 -507.294)" fill="#1a1818"/>
  </g>
</svg>
