<svg id="Group_103" data-name="Group 103" xmlns="http://www.w3.org/2000/svg" width="229.399" height="63.127" viewBox="0 0 229.399 63.127">
  <path id="Path_283" data-name="Path 283" d="M438.374,443.238c.927.213,1.872.366,2.776.649a17.976,17.976,0,0,1,12.1,11.814c2.76,7.956,1.515,15.364-4.261,21.631a16.26,16.26,0,0,1-16.6,5.021,1.72,1.72,0,0,0-.851-.013c-7.751,2.033-15.207-1.731-19.181-8.253a21.244,21.244,0,0,1-2.873-8.151c-.019-.131.036-.3-.156-.358v-4.757c.134-.064.122-.194.133-.308a18.14,18.14,0,0,1,1.041-4.547c2.378-6.34,6.613-10.7,13.345-12.379a7.978,7.978,0,0,0,1.662-.352h3.612a17.962,17.962,0,0,1,1.778.39c1.259.406,2.4-.084,3.567-.39Zm-10.25,10.1c-.415.091-.525.467-.7.77-.114.193.048.29.187.391.187.135.281.037.4-.1a.993.993,0,0,0,.246-.928c.244.184.494-.107.74.007.042.654.459.44.815.343.17-.046.214-.4.49-.2.025.106-.239.316.022.305a4.841,4.841,0,0,0,2.1-.191l.119.123a.72.72,0,0,0,.5,1.056c-.14.237-.214.487.008.7.194.191.4,0,.592-.046s.355-.144.539-.19c.246-.062.372-.179.335-.452a.573.573,0,0,0-.335-.492c-.2-.108-.415.077-.581-.093-.105-.408.211-.878-.676-1.028a4,4,0,0,0-2.634.312c-.352-.807-.846-.308-1.3-.142-.034-.25.337-.63-.191-.72C428.376,452.69,428.154,452.923,428.124,453.336Zm.707,8.216c-.116-.064-.066-.143-.025-.229a.971.971,0,0,0-.435-1.4,1.2,1.2,0,0,0-1.517.182.9.9,0,0,0-.163,1.229,1.32,1.32,0,0,0,1.592.435c.131-.048.235-.278.42-.092-.019.209-.228.212-.34.32-.225.216-.8-.062-.748.326.051.421.619.156.917.324a.145.145,0,0,0,.07.013c.352-.005.833.272,1.015.034.217-.283-.178-.683-.247-1.047C429.272,461.136,429.039,461.429,428.831,461.552Zm3.046,3.438c.13.209-.083.235-.176.285a3.453,3.453,0,0,1-1.893.263c-.207-.012-.547-.318-.556.207-.006.356-.22.8.356.932a2.57,2.57,0,0,0,1.633-.008,8.932,8.932,0,0,1,3.58-.513c.748-.054,1.5-.113,2.264-.172-.58-1.387-.311-1.1-1.589-1.059-1.21.038-2.418.148-3.63.078.139-.241.379-.154.578-.164,1.2-.057,2.392-.1,3.588-.149.982-.039,1.321-.43,1.256-1.4-.019-.292-.089-.461-.411-.419a31.456,31.456,0,0,0-4.585.412c.448-.4-.166-.668-.133-1.017.51.738,1.257.591,1.986.537.646-.048,1.3-.056,1.941-.111.285-.024.6.086.924-.17a5.752,5.752,0,0,1-1.9-.966,1.122,1.122,0,0,1-.091-1.752c.418-.4.872-.753,1.3-1.135a1.135,1.135,0,0,1,1.459-.024,2.827,2.827,0,0,1,1.389,3.372,1.686,1.686,0,0,0,.382,1.608c.414.53.374.911-.244,1.269a3.617,3.617,0,0,0-1.975,2.064c-.184.618-.13.841.471,1.089,1.184.488,2.519.854,2.775,2.493.079-.155.116-.217.143-.282.061-.157.124-.312.175-.472a20.853,20.853,0,0,0-.382-14.307,15.965,15.965,0,0,0-7.926-8.949,1.3,1.3,0,0,0-1.271-.01,14.05,14.05,0,0,0-5.312,4.333c-4.258,5.778-5.11,12.151-2.985,18.91a16.01,16.01,0,0,0,8.262,9.983,1.292,1.292,0,0,0,1.273.019,15.84,15.84,0,0,0,7.219-7.289c.049-.094.039-.181-.091-.267a9.054,9.054,0,0,1-1.757.738,19.634,19.634,0,0,1-9.353-.113,9.166,9.166,0,0,1-3.613-1.552c-1.334-1.032-1.286-2.293.11-3.216a7.786,7.786,0,0,1,3.118-1.04c.231-.038.508.027.691-.255a2.508,2.508,0,0,0-1.246-.185c-.4-.011-.48-.169-.553-.552-.179-.949.393-1.865.069-2.807-.017-.051.046-.132.078-.2a.793.793,0,0,0-.367-1.187,1.083,1.083,0,0,1-.221-1.82c.749-.489.582-1.1.571-1.74,0-.231-.129-.505.17-.633a.947.947,0,0,0,.556-.853.385.385,0,0,1,.33-.386c.4-.113.613-.8.282-.984-.65-.363-1.105-1.147-2.037-.964-.413.081-.53-.324-.414-.568.341-.715.551-1.559,1.436-1.867.149.19-.054.24-.143.3-.525.356-.684.958-1,1.454-.08.124-.108.306.036.385.166.091.244-.084.317-.2a5.482,5.482,0,0,1,1.379-1.784c-.214-.387-.43.064-.6-.14.249-.407.583-.458.848-.076a2.519,2.519,0,0,0,2.416,1.1c.718-.045,1.441-.057,2.151-.16.5-.073.691.135.778.568a1.075,1.075,0,0,0,.629.842c.506.265.678.93.955,1.445.062.114.06.337-.09.385-.672.217-.4.757-.453,1.2-.027.229.237.623-.3.618a1.305,1.305,0,0,0-.063-1.279c-.1-.182-.5.132-.731.263-.5.278-.075.666-.083,1.007-.009.373.225.323.461.28-.072.394-.391.45-.7.49-.544.069-1.093.109-1.636.178-.762.1-1.07.593-.741,1.28.339.709.379,1.619,1.259,1.99-.017.04-.034.081-.052.122-.616-.35-.932.252-1.367.449-.254.116-.7.241-.327.693.252.309.281,1,.967.562-.274.58-.623.725-1.695.742-.162,0-.42-.131-.466.165s.21.358.417.384A3.839,3.839,0,0,0,431.877,464.99Zm-.75,4.889.131.125a.552.552,0,0,1-.627.219,2.448,2.448,0,0,1-1.494-.768c-.34-.373-.8-.5-.389-1.147a8.65,8.65,0,0,0-2.715.623c-.671.31-.677.552-.054.983a5.781,5.781,0,0,0,1.294.624,11.219,11.219,0,0,0,4.7.729l-.383.22h1.379c-.059-.247-.458-.1-.478-.473a3.132,3.132,0,0,0,2.583.154l-2.621-.4-.033-.057c.237-.232.5-.061.746-.035.477.052.949.148,1.426.208.142.018.4.09.338-.194-.128-.563.25-.438.533-.41a1.761,1.761,0,0,0,.852-.072c.444-.18.506-.42.092-.709-.355-.247-.7-.51-1.077-.722s-.772-.307-.7.359c.049.47-.185.529-.547.443-.2-.047-.431.03-.579-.161,0-.214.465-.007.291-.32a1.358,1.358,0,0,0-1.716-.756c-.766.384-1.557-.011-2.392.464a.946.946,0,0,1,1.158-.456c.522.069.69-.061.686-.629,0-.654-.146-.94-.841-.737a1.205,1.205,0,0,1-.573.006c-.47-.105-.674.042-.618.535.041.364.041.691-.421.858-.184.067-.4.447-.2.6.272.2.613.649.949.436C430.535,468.966,430.857,469.267,431.127,469.88Zm4.288,10.957a9.432,9.432,0,0,0,3.01-.058,13.639,13.639,0,0,0,8.818-5.639,20.716,20.716,0,0,0,.919-22.664c-2.315-3.707-5.471-6.275-9.905-7.008a6.789,6.789,0,0,0-2.554-.034C448.785,453.267,448.646,473.213,435.415,480.837Zm-7.386-35.494c-.382,0-.766-.017-1.147,0a12.839,12.839,0,0,0-9.037,4.377,20.548,20.548,0,0,0-1.965,24.293,14.092,14.092,0,0,0,9.6,6.763,7.994,7.994,0,0,0,2.968.04C414.987,472.991,415.355,452.82,428.029,445.343Zm1.72,13.03a.647.647,0,0,1,.288-.631c.425-.332.18-.725.08-1.053-.115-.382-.481-.142-.738-.14-.19,0-.378.069-.57.083-.676.052-.9.315-.667.977.58,1.648,1.214,3.276,1.815,4.917.087.235.167.279.41.179,1.1-.455,1.168-.6.69-1.7-.133-.308-.25-.623-.392-.926a.565.565,0,0,1-.01-.611c.46-.656.036-1.13-.261-1.607C430.051,457.912,430.079,458.309,429.749,458.373Zm3.744,8.553c-.264-.166-.3-.529-.654-.457-.22.045-.583-.107-.625.176-.056.376.334.245.531.255a18.267,18.267,0,0,1,3.109.524c1.081.244,1.081.253,1.382-.8.028-.1.132-.21-.037-.34-1.116.055-2.262.123-3.409.16C433.453,466.453,433.548,466.687,433.494,466.926Zm-2.619-9.583a11.332,11.332,0,0,0,3.958-1.206.389.389,0,0,0,.224-.523c-.116-.361-.392-.217-.59-.128a11.029,11.029,0,0,1-3.688.864c-.4.033-.394.245-.349.535C430.472,457.149,430.467,457.443,430.874,457.343Zm4.861,2.235c-1.237.648-.967,1.628-.018,2.1a10.07,10.07,0,0,0,.972.459c.353.13.787.33.917-.261.1-.447.156-.9-.532-.995A1.391,1.391,0,0,1,435.736,459.578Zm-4.959-3.519a9.54,9.54,0,0,0,1.708-.164.329.329,0,0,0,.233-.127c.13-.212-.521-1.555-.774-1.563-.671-.022-1.344-.013-2.016,0a.3.3,0,0,0-.32.356C430.69,454.685,430.962,455.033,430.776,456.058Zm-2.068,7.1c-.233.021-.544.034-.85.082-.174.028-.527-.091-.423.274.087.305-.145.814.341.889a7.249,7.249,0,0,0,1.924.139c.144-.016.272-.015.332-.194a.852.852,0,0,0-.89-1.211C429.022,463.146,428.9,463.153,428.708,463.163Zm8.249-4.523a1.129,1.129,0,0,0-.927.7.911.911,0,0,0,.495,1.09,4.252,4.252,0,0,0,1.013.354c.415.1.568-.262.429-.5a2.083,2.083,0,0,1-.21-1.031C437.729,458.79,437.429,458.672,436.957,458.64Zm-8.809,7.783c1,.046.759.1.863-1.052.094-1.041-.707-.546-1.125-.673-.378-.115-.627.008-.624.5C427.269,466.385,427.26,466.4,428.148,466.423Zm4.059-7.812c.313-.3,1.007.291,1.12-.4.052-.313.128-.988-.465-.963-.406.017-1.1-.17-1.207.479C431.615,457.959,431.5,458.611,432.207,458.61Zm-2.364-2.392c.4-.041.716-.237.718-.694s-.328-.662-.757-.668c-.471-.007-.815.231-.787.712C429.042,456,429.376,456.209,429.843,456.219Zm-1.251,3.433c-.052-.178-.08-.293-.12-.4-.145-.4-.286-.8-.445-1.2-.055-.137-.05-.386-.285-.331a.44.44,0,0,0-.349.462C427.342,459.224,427.483,459.426,428.591,459.651Zm-.467-5.013c.007.311.249.355.429.443.091.044.837-.719.807-.83-.073-.272-.355-.256-.533-.27C428.375,453.947,428.369,454.439,428.125,454.638Zm3.335,3.669c-.119-.189.138-.682-.378-.748-.132-.017-.47.017-.353.295.126.3.137.73.577.8C431.478,458.687,431.571,458.581,431.46,458.308Z" transform="translate(-409.335 -443.238)" fill="#e10b21"/>
  <path id="Path_284" data-name="Path 284" d="M447.558,443.238c-1.169.306-2.308.8-3.567.39a17.957,17.957,0,0,0-1.778-.39Z" transform="translate(-422.42 -443.238)" fill="#fff"/>
  <path id="Path_285" data-name="Path 285" d="M630.774,492.457q-9.316,0-18.633,0a5.994,5.994,0,0,1-5.7-4.464,4.568,4.568,0,0,1-.076-1.073q0-17.655,0-35.309a6.274,6.274,0,0,1,6.056-6.431c.288-.02.577-.022.866-.022h30.19a7,7,0,0,1,7.072,7.024c.01,2.714-.017,5.428.017,8.142.007.585-.172.706-.723.7q-5.345-.036-10.689,0c-.463,0-.7-.079-.864-.581a3.872,3.872,0,0,0-4.067-2.887c-4.911,0-9.822.008-14.733-.013-.553,0-.716.122-.714.7q.033,10.557,0,21.114c0,.636.2.726.768.723,4.357-.023,8.715-.013,13.073-.013a3.4,3.4,0,0,0,3.511-3.475c.01-.721-.034-1.444.013-2.161.037-.557-.123-.724-.7-.719-3.755.028-7.511-.006-11.267.033-.668.007-.774-.2-.768-.8q.047-4.612,0-9.223c0-.538.131-.678.675-.676,5.97.02,11.941-.026,17.911.033a12.159,12.159,0,0,1,6.22,1.849,4.731,4.731,0,0,1,2.343,4.282c0,7.494-.007,14.988.018,22.482,0,.64-.161.79-.793.787C643.437,492.446,637.106,492.457,630.774,492.457Z" transform="translate(-487.749 -444)" fill="#e1051e"/>
  <path id="Path_286" data-name="Path 286" d="M707.108,492.454q-7.728,0-15.457,0a7.661,7.661,0,0,1-2.688-.434,4.741,4.741,0,0,1-3.408-4.464c-.123-3.262-.037-6.532-.058-9.8,0-.429.213-.447.538-.446,3.756.006,7.512.015,11.268-.009.5,0,.6.193.638.619a3.62,3.62,0,0,0,.824,2.037,3.075,3.075,0,0,0,2.5,1.209c3.972-.017,7.946-.079,11.917.025a2.793,2.793,0,0,0,2.949-2.9,3.757,3.757,0,0,0-.816-2.48,2.661,2.661,0,0,0-2.266-1.119c-7.271.048-14.542.026-21.813.025A5.781,5.781,0,0,1,685.5,469q0-8.792,0-17.584a5.954,5.954,0,0,1,6.236-6.262q15.384,0,30.769,0a8.073,8.073,0,0,1,1.862.192,5.2,5.2,0,0,1,4.319,5.358c.043,3.026,0,6.053.019,9.079,0,.42-.139.518-.536.517q-5.706-.019-11.412,0c-.362,0-.476-.092-.512-.468a3.915,3.915,0,0,0-.762-2.067,3.025,3.025,0,0,0-2.523-1.293c-4.093.014-8.187.045-12.279-.017a2.579,2.579,0,0,0-2.529,2.029,3.849,3.849,0,0,0,.666,3.279,2.617,2.617,0,0,0,2.249,1.146c7.319-.042,14.638-.023,21.957-.022a5.842,5.842,0,0,1,5.671,5.673q0,8.792,0,17.583a6.4,6.4,0,0,1-4.071,6.057,6.716,6.716,0,0,1-2.065.26Q714.836,492.452,707.108,492.454Z" transform="translate(-519.241 -443.998)" fill="#e1051e"/>
  <path id="Path_287" data-name="Path 287" d="M493.258,492.4c.563-1.681,1.112-3.333,1.669-4.983q7.016-20.806,14.024-41.616c.16-.476.347-.671.89-.668q7.944.037,15.888,0a.745.745,0,0,1,.875.66q6.5,22.891,13.03,45.771c.267.94.435.882-.641.883-3.129,0-6.258-.009-9.388.012a.679.679,0,0,1-.79-.588c-.674-2.274-1.405-4.531-2.081-6.8-.138-.464-.309-.652-.828-.65q-8.955.031-17.91,0a.756.756,0,0,0-.854.628c-.769,2.294-1.583,4.572-2.366,6.862-.12.353-.248.554-.687.551-3.49-.02-6.981-.011-10.471-.013A3.3,3.3,0,0,1,493.258,492.4Zm23.723-34.077c-.075.093-.111.12-.123.155-1.6,4.507-3.2,9.018-4.822,13.519-.209.579.09.517.456.517,2.956,0,5.913-.013,8.869.007.557,0,.636-.126.447-.645-1.033-2.832-2.031-5.676-3.04-8.516C518.176,461.691,517.586,460.025,516.981,458.319Z" transform="translate(-442.736 -443.991)" fill="#e1051e"/>
  <path id="Path_288" data-name="Path 288" d="M575.979,468.784c0-7.637.008-15.274-.015-22.91,0-.607.161-.751.755-.746,3.658.028,7.317.023,10.976,0,.521,0,.742.073.741.683q-.029,22.982,0,45.964c0,.537-.134.685-.68.681q-5.524-.038-11.047,0c-.625.005-.741-.191-.739-.77Q576,480.239,575.979,468.784Z" transform="translate(-475.652 -443.99)" fill="#e10b21"/>
  <path id="Path_289" data-name="Path 289" d="M435.13,531.5q-7.435,0-14.872,0a3.662,3.662,0,0,1-3.986-3.982c0-3.746.083-7.494-.03-11.236a3.851,3.851,0,0,1,4.114-4.06c3.754.025,7.508.007,11.262.007q9.132,0,18.265,0a4.342,4.342,0,0,1,3.006,1,3.4,3.4,0,0,1,1.171,2.681c0,3.961.012,7.923-.005,11.885a3.629,3.629,0,0,1-3.837,3.7Q442.675,531.507,435.13,531.5Zm0-1.156q7.438,0,14.876,0a2.542,2.542,0,0,0,2.814-2.8q0-5.619,0-11.24a2.569,2.569,0,0,0-2.866-2.911q-14.8-.014-29.606,0a2.543,2.543,0,0,0-2.841,2.853q0,5.583,0,11.167c0,2,.942,2.932,2.964,2.932Z" transform="translate(-412.083 -470.693)" fill="#e10b21"/>
  <g id="Group_99" data-name="Group 99" transform="translate(49.166 52.461)">
    <path id="Path_290" data-name="Path 290" d="M787.366,547.138a2.785,2.785,0,0,1-3.581,1.148,1.7,1.7,0,0,1-1-1.8c0-.145.058-.2.2-.2a4.692,4.692,0,0,0,.512,0c.425-.032.78-.058.807.564.018.4.407.56.8.539a.673.673,0,0,0,.723-.587.694.694,0,0,0-.531-.808c-.426-.157-.857-.3-1.278-.471a1.7,1.7,0,0,1-1.185-1.892,1.679,1.679,0,0,1,1.4-1.557,3.473,3.473,0,0,1,1.813.019,1.591,1.591,0,0,1,1.217,1.685c-.007.165-.062.227-.224.224-.341-.005-.683-.011-1.024,0-.279.01-.217-.208-.253-.353-.111-.451-.377-.645-.8-.563a.654.654,0,0,0-.59.532.61.61,0,0,0,.385.69,5.562,5.562,0,0,0,.915.341,2.425,2.425,0,0,1,1.682,1.212Z" transform="translate(-607.132 -539.876)" fill="#e10b21"/>
    <path id="Path_291" data-name="Path 291" d="M646.62,542.7a1.822,1.822,0,0,1,3.036.181,1.636,1.636,0,0,1,1.682-.9,1.338,1.338,0,0,1,1.37,1.208,4.755,4.755,0,0,1,.07.761c.007,1.321-.012,2.642.013,3.963.007.371-.111.471-.454.43a2.972,2.972,0,0,0-.682,0c-.37.042-.506-.058-.5-.468.03-1.292.019-2.585,0-3.878-.007-.608-.313-.877-.8-.76a.733.733,0,0,0-.54.5,1.842,1.842,0,0,0-.087.629c0,1.207-.005,2.415.009,3.622,0,.27-.06.382-.349.358a5,5,0,0,0-.9,0c-.317.03-.372-.1-.368-.387.014-1.193.007-2.386,0-3.58,0-.17-.012-.34-.019-.51-.014-.328-.125-.595-.492-.639a.724.724,0,0,0-.819.467,1.508,1.508,0,0,0-.086.627c0,1.221-.008,2.443.005,3.665,0,.274-.066.379-.353.357-.409-.031-.945.127-1.2-.078s-.076-.771-.079-1.177c-.01-1.519,0-3.039-.011-4.56,0-.3.052-.456.392-.409a3.05,3.05,0,0,0,.6,0C646.448,542.1,646.8,542.1,646.62,542.7Z" transform="translate(-552.305 -539.884)" fill="#e10b21"/>
    <path id="Path_292" data-name="Path 292" d="M629.744,546.284a2.154,2.154,0,0,1-2.184.8,1.93,1.93,0,0,1-1.717-1.655,11.071,11.071,0,0,1-.018-4.9,2.73,2.73,0,0,1,4.26-1.5,2.391,2.391,0,0,1,.846,1.962c.01.179-.089.214-.238.213-.385,0-.769-.007-1.154,0-.166,0-.211-.063-.232-.22a2.453,2.453,0,0,0-.165-.613.81.81,0,0,0-.78-.562.851.851,0,0,0-.782.566,3.683,3.683,0,0,0-.266,1.243,11.625,11.625,0,0,0,.122,3.182c.149.761.52,1.118,1.053,1.053a1.214,1.214,0,0,0,.914-1.271c.011-.794.012-.807-.773-.814-.27,0-.329-.094-.331-.346-.006-.917-.016-.917.9-.917.513,0,1.026.009,1.538,0,.217-.005.3.051.294.282q-.015,1.94,0,3.88c0,.257-.093.322-.321.294a2.59,2.59,0,0,0-.3,0C629.816,546.955,629.816,546.955,629.744,546.284Z" transform="translate(-544.556 -538.499)" fill="#e10b21"/>
    <path id="Path_293" data-name="Path 293" d="M685.495,542.625c-.1-.54.218-.519.57-.514,1.013.013,1.013,0,1.013,1.019v4.516c0,.114,0,.227,0,.341a2.545,2.545,0,0,1-3.926,2.171,1.381,1.381,0,0,1-.778-1.188c-.011-.166.036-.224.206-.219.37.01.74,0,1.11,0,.118,0,.2.008.243.161.127.415.475.495.853.465a.718.718,0,0,0,.681-.653,3.993,3.993,0,0,0,.014-1.114,1.911,1.911,0,0,1-1.333.636,1.5,1.5,0,0,1-1.554-1.032,6.287,6.287,0,0,1-.009-4.138,1.6,1.6,0,0,1,2.777-.544A.967.967,0,0,0,685.495,542.625Zm.009,2.3a3.759,3.759,0,0,0-.158-1.232.65.65,0,0,0-.671-.482.614.614,0,0,0-.643.512,6.524,6.524,0,0,0-.04,2.654.662.662,0,0,0,.642.625.71.71,0,0,0,.738-.578A4.62,4.62,0,0,0,685.5,544.923Z" transform="translate(-567.114 -539.873)" fill="#e10b21"/>
    <path id="Path_294" data-name="Path 294" d="M724.187,544.434h.171c.621,0,.621,0,.692.594a.873.873,0,0,0,.693.861,1.061,1.061,0,0,0,1.2-.427,1.157,1.157,0,0,0-.113-1.275,1.973,1.973,0,0,0-.789-.489c-.42-.17-.856-.3-1.262-.507a2.346,2.346,0,0,1-1.243-2.9,2.188,2.188,0,0,1,2.253-1.654,4.261,4.261,0,0,1,1.229.1,1.974,1.974,0,0,1,1.551,1.983c.005.259-.038.406-.341.367a2.367,2.367,0,0,0-.554,0c-.447.051-.781.02-.806-.574a.694.694,0,0,0-.727-.648.847.847,0,0,0-.917.478,1.129,1.129,0,0,0,.2,1.227,1.816,1.816,0,0,0,.544.328c.534.232,1.077.445,1.6.7a2.4,2.4,0,0,1-.516,4.44,4.33,4.33,0,0,1-2.318-.048,2.148,2.148,0,0,1-1.39-2.408c.03-.135.094-.154.2-.153C723.76,544.436,723.974,544.435,724.187,544.434Z" transform="translate(-583.457 -538.552)" fill="#e10b21"/>
    <path id="Path_295" data-name="Path 295" d="M497.4,547.094c-.542,0-1.025-.008-1.508,0-.2,0-.27-.067-.3-.258-.068-.391-.179-.774-.246-1.165-.041-.238-.134-.338-.389-.329-.512.018-1.025.019-1.537,0-.261-.01-.351.1-.385.335s-.1.443-.146.665c-.172.75-.172.757-.964.746-.305,0-.721.138-.882-.073-.113-.148.1-.549.18-.836.609-2.315,1.223-4.629,1.825-6.947.071-.275.174-.4.485-.384.468.031.939.016,1.409,0,.2,0,.3.052.353.264.108.47.249.931.373,1.4C496.237,542.693,496.811,544.87,497.4,547.094Zm-3.177-6.6-.064-.018c-.172.786-.349,1.57-.517,2.356-.262,1.224-.26,1.219,1.026,1.152.236-.012.293-.084.245-.3C494.677,542.617,494.45,541.554,494.22,540.491Z" transform="translate(-491.005 -538.638)" fill="#e10b21"/>
    <path id="Path_296" data-name="Path 296" d="M526.285,542.723a1.85,1.85,0,0,1,1.811-.731,1.313,1.313,0,0,1,1.24,1.152,3.492,3.492,0,0,1,.067.633c.006,1.392-.009,2.784.011,4.176,0,.332-.1.419-.408.391a5,5,0,0,0-.9,0c-.281.025-.324-.092-.321-.339.01-1.335.013-2.67,0-4.006-.005-.54-.214-.765-.643-.778a.745.745,0,0,0-.822.734,3.238,3.238,0,0,0-.018.425q0,1.385,0,2.77c0,.3-.01.6,0,.895.01.214-.049.308-.284.3-.369-.018-.74-.013-1.11,0-.187.005-.247-.064-.246-.246q.006-2.855,0-5.711c0-.208.08-.276.279-.263s.37,0,.555,0C526.152,542.125,526.152,542.125,526.285,542.723Z" transform="translate(-504.402 -539.882)" fill="#e10b21"/>
    <path id="Path_297" data-name="Path 297" d="M580.834,547.848a2.019,2.019,0,0,1-1.724.742,1.347,1.347,0,0,1-1.406-1.361c-.039-1.589-.015-3.18-.023-4.77,0-.186.071-.247.252-.242.341.01.684.019,1.024,0,.272-.018.334.089.332.341-.01,1.249,0,2.5,0,3.748,0,.128,0,.257.008.383.029.317.122.588.5.643a.754.754,0,0,0,.9-.471,1.747,1.747,0,0,0,.089-.628c0-1.221.007-2.442-.008-3.663,0-.282.079-.374.358-.353a6.341,6.341,0,0,0,.9,0c.266-.017.373.049.371.345q-.02,2.769,0,5.537c0,.25-.048.369-.325.34a3.313,3.313,0,0,0-.682,0C580.968,548.48,580.7,548.4,580.834,547.848Z" transform="translate(-525.501 -539.977)" fill="#e10b21"/>
    <path id="Path_298" data-name="Path 298" d="M545.343,542.734a1.778,1.778,0,0,1,1.383-.754,1.434,1.434,0,0,1,1.719,1.489c.046,1.546.016,3.094.023,4.641,0,.152-.031.25-.209.228-.014,0-.028,0-.043,0-.438-.019-.986.171-1.282-.073-.264-.217-.072-.775-.077-1.181-.012-.993,0-1.987-.007-2.981-.007-.651-.189-.878-.663-.882-.5,0-.794.275-.808.882-.029,1.248-.043,2.5-.017,3.745.009.428-.122.543-.521.5a5.363,5.363,0,0,0-.852,0c-.188.008-.243-.063-.242-.244q.007-2.853,0-5.706c0-.2.065-.282.27-.268s.4,0,.6,0C545.245,542.125,545.245,542.125,545.343,542.734Z" transform="translate(-511.996 -539.882)" fill="#e10b21"/>
    <path id="Path_299" data-name="Path 299" d="M757.537,542.735a1.97,1.97,0,0,1,1.916-.73,1.326,1.326,0,0,1,1.236,1.393c.05,1.575.022,3.151.032,4.728,0,.169-.062.232-.223.214-.014,0-.029,0-.043,0-.438-.01-1,.14-1.28-.075s-.072-.8-.078-1.217c-.012-.994,0-1.988,0-2.982,0-.583-.178-.822-.612-.842a.73.73,0,0,0-.844.795c-.037,1.092-.019,2.185-.036,3.279-.005.337.154.795-.071.978-.209.17-.654.029-.988.072-.451.059-.556-.11-.55-.547.026-1.76.02-3.522,0-5.283,0-.325.09-.434.407-.394a2.8,2.8,0,0,0,.554,0C757.353,542.094,757.719,542.086,757.537,542.735Z" transform="translate(-596.467 -539.884)" fill="#e10b21"/>
    <path id="Path_300" data-name="Path 300" d="M519.991,548.332a8.906,8.906,0,0,0-1,.007c-.448.054-.718-.075-.719-.675a1.724,1.724,0,0,1-1.862.809,1.272,1.272,0,0,1-.759-.358,2.041,2.041,0,0,1,.635-3.2c.476-.179.982-.278,1.467-.437a.726.726,0,1,0-.518-1.355.624.624,0,0,0-.42.629c.005.252-.094.322-.327.3-.2-.016-.4,0-.6,0-.591,0-.6-.011-.518-.587a1.646,1.646,0,0,1,1.389-1.422,4.024,4.024,0,0,1,1.9.06,1.35,1.35,0,0,1,1.077,1.223c.126,1.132.026,2.268.056,3.4A3.788,3.788,0,0,0,519.991,548.332ZM518.258,546c0-.659,0-.659-.607-.476l-.163.051a.965.965,0,0,0-.755,1.288.584.584,0,0,0,.827.473C518.1,547.175,518.258,546.865,518.258,546Z" transform="translate(-500.608 -539.876)" fill="#e10b21"/>
    <path id="Path_301" data-name="Path 301" d="M709.966,548.333c-.474,0-.914,0-1.354,0-.388,0-.228-.394-.417-.57a1.558,1.558,0,0,1-1.44.729,1.412,1.412,0,0,1-1.562-1.261c-.234-1.49.264-2.118,1.47-2.453.356-.1.718-.179,1.069-.293a.653.653,0,0,0,.489-.823.671.671,0,0,0-.708-.6.665.665,0,0,0-.7.653c-.013.287-.111.371-.38.345-.183-.018-.37,0-.555,0-.588,0-.6-.018-.515-.59a1.645,1.645,0,0,1,1.4-1.421,4.093,4.093,0,0,1,1.863.053,1.355,1.355,0,0,1,1.11,1.242c.121,1.119.026,2.242.054,3.364A4.074,4.074,0,0,0,709.966,548.333Zm-1.74-2.366h.014c0-.156,0-.312,0-.467,0-.125-.033-.193-.172-.141a9.689,9.689,0,0,0-.949.361.994.994,0,0,0-.384,1.231.558.558,0,0,0,.6.436.939.939,0,0,0,.886-.827A4.238,4.238,0,0,0,708.226,545.967Z" transform="translate(-576.228 -539.877)" fill="#e10b21"/>
    <path id="Path_302" data-name="Path 302" d="M777.169,545.445h-1.281c-.128,0-.268-.015-.271.177a2.954,2.954,0,0,0,.145,1.258.656.656,0,0,0,.645.467.583.583,0,0,0,.617-.491c.06-.759.559-.7,1.09-.685.59.021.591,0,.472.592a2.069,2.069,0,0,1-2.578,1.677,1.947,1.947,0,0,1-1.9-1.793,7.717,7.717,0,0,1,.014-2.917,2.42,2.42,0,0,1,3.772-1.4,2.478,2.478,0,0,1,.817,1.852c.04.322.018.652.041.977.017.231-.082.293-.3.286C778.023,545.437,777.6,545.445,777.169,545.445Zm-.759-.973c.861,0,.938-.105.677-.916a.668.668,0,0,0-.808-.505,1.017,1.017,0,0,0-.66,1.18c.046.462.418.148.624.238A.464.464,0,0,0,776.41,544.472Z" transform="translate(-603.623 -539.841)" fill="#e10b21"/>
    <path id="Path_303" data-name="Path 303" d="M672.99,545.369a6.091,6.091,0,0,1,.241-1.941,1.9,1.9,0,0,1,1.733-1.41,5.077,5.077,0,0,1,.892-.023,1.878,1.878,0,0,1,1.876,1.6,6.993,6.993,0,0,1,.069,2.828,2.234,2.234,0,0,1-2.813,2.059,2,2,0,0,1-1.91-1.985A5.855,5.855,0,0,1,672.99,545.369Zm1.616-.127a5.633,5.633,0,0,0,.117,1.481c.09.372.284.669.711.672s.631-.287.71-.665a7.191,7.191,0,0,0,.013-2.911c-.105-.524-.368-.761-.732-.747-.38.016-.636.3-.733.814A6.435,6.435,0,0,0,674.607,545.242Z" transform="translate(-563.431 -539.886)" fill="#e10b21"/>
    <path id="Path_304" data-name="Path 304" d="M595.615,545.481c-.427,0-.854,0-1.281,0-.125,0-.269-.024-.268.176a2.977,2.977,0,0,0,.16,1.255.668.668,0,0,0,.641.474.731.731,0,0,0,.657-.524c.089-.206.009-.521.214-.615a1.849,1.849,0,0,1,.716-.034c.743,0,.743,0,.566.715a2.068,2.068,0,0,1-2.555,1.547,1.917,1.917,0,0,1-1.88-1.668,7.325,7.325,0,0,1,.005-3.086,2.169,2.169,0,0,1,2.655-1.74c1.125.108,1.7.712,1.894,1.991.23,1.507.23,1.507-1.267,1.507Zm-.759-.973c.854,0,.962-.153.675-.95a.664.664,0,0,0-.79-.476,1.055,1.055,0,0,0-.669,1.226c.066.42.417.1.616.2A.422.422,0,0,0,594.856,544.508Z" transform="translate(-531.368 -539.877)" fill="#e10b21"/>
    <path id="Path_305" data-name="Path 305" d="M605.939,545.24a5.287,5.287,0,0,1,.272-1.924,1.882,1.882,0,0,1,1.641-1.293,5.682,5.682,0,0,1,.765-.037,1.91,1.91,0,0,1,2.058,1.649,6.935,6.935,0,0,1,.022,3.038,2.221,2.221,0,0,1-2.8,1.811,1.971,1.971,0,0,1-1.849-1.8A7.512,7.512,0,0,1,605.939,545.24Zm1.592,0a9.906,9.906,0,0,0,.127,1.478c.1.372.282.665.707.679a.7.7,0,0,0,.719-.656,7.651,7.651,0,0,0,0-3,.707.707,0,0,0-.718-.66c-.419.01-.61.3-.71.677A10.094,10.094,0,0,0,607.531,545.239Z" transform="translate(-536.747 -539.886)" fill="#e10b21"/>
    <path id="Path_306" data-name="Path 306" d="M639.04,545.48c-.427,0-.854,0-1.282,0-.138,0-.252.009-.251.2a3.027,3.027,0,0,0,.141,1.217.676.676,0,0,0,.63.493.69.69,0,0,0,.668-.506c.077-.208.073-.542.211-.612a1.9,1.9,0,0,1,.792-.055c.653,0,.668.018.518.672a2.086,2.086,0,0,1-2.612,1.584,1.891,1.891,0,0,1-1.823-1.629,7.313,7.313,0,0,1,0-3.129,2.165,2.165,0,0,1,2.663-1.73c1.118.11,1.693.714,1.879,2.008.055.378.039.765.078,1.146.03.3-.1.361-.371.349C639.867,545.467,639.453,545.48,639.04,545.48Zm-.712-.973c.2-.044.594.13.706-.07a1.2,1.2,0,0,0-.092-.947.648.648,0,0,0-.8-.395,1.066,1.066,0,0,0-.63,1.217c.066.383.389.122.583.192A.905.905,0,0,0,638.328,544.507Z" transform="translate(-548.657 -539.877)" fill="#e10b21"/>
    <path id="Path_307" data-name="Path 307" d="M664.167,545.151a6.663,6.663,0,0,1-.3,2,1.926,1.926,0,0,1-1.561,1.285,3.9,3.9,0,0,1-1.062.039,1.91,1.91,0,0,1-1.85-1.644,7.512,7.512,0,0,1-.068-2.788,2.235,2.235,0,0,1,2.773-2.065c1.167.1,1.778.722,1.967,2.021C664.124,544.392,664.137,544.79,664.167,545.151Zm-3.312.008a5.724,5.724,0,0,0,.137,1.616.7.7,0,0,0,.714.61.687.687,0,0,0,.671-.6,4.571,4.571,0,0,0,.13-.794,6.761,6.761,0,0,0-.133-2.323.686.686,0,0,0-1.114-.441,1.086,1.086,0,0,0-.33.719A6,6,0,0,0,660.855,545.159Z" transform="translate(-557.956 -539.877)" fill="#e10b21"/>
    <path id="Path_308" data-name="Path 308" d="M749.928,545.485q-.64,0-1.28,0c-.135,0-.258,0-.255.191a2.972,2.972,0,0,0,.151,1.256.665.665,0,0,0,.609.458.712.712,0,0,0,.656-.461c.116-.226.023-.615.251-.676a5.03,5.03,0,0,1,1.145-.037c.219-.005.2.127.2.281a1.97,1.97,0,0,1-2.013,2,2.125,2.125,0,0,1-2.562-2.087,7.925,7.925,0,0,1,.055-2.628,2.058,2.058,0,0,1,2.105-1.8,2.089,2.089,0,0,1,2.484,2.2c.029.338.008.681.029,1.021.013.224-.07.3-.292.292C750.782,545.475,750.355,545.485,749.928,545.485Zm-.774-.973c.864,0,.991-.184.679-.987a.655.655,0,0,0-.82-.421,1.039,1.039,0,0,0-.615,1.216c.069.378.391.12.586.189A.533.533,0,0,0,749.154,544.512Z" transform="translate(-592.787 -539.881)" fill="#e10b21"/>
    <path id="Path_309" data-name="Path 309" d="M502.737,546.282a2.234,2.234,0,0,0,.3,0c.292-.042.414.037.434.371a.811.811,0,0,0,1.231.634.654.654,0,0,0,.345-.638.641.641,0,0,0-.443-.619c-.476-.184-.963-.341-1.435-.536a1.8,1.8,0,0,1,.063-3.363,3.449,3.449,0,0,1,2.142-.01,1.553,1.553,0,0,1,1.084,1.647c-.013.2-.086.24-.258.231a4.4,4.4,0,0,0-.512,0c-.385.026-.733.061-.766-.5-.019-.334-.344-.445-.645-.423a.642.642,0,0,0-.665.5.6.6,0,0,0,.321.718,10.853,10.853,0,0,0,1.359.494,1.727,1.727,0,0,1,1.259,2.185,1.665,1.665,0,0,1-1.167,1.345,3.508,3.508,0,0,1-2.345-.007,1.7,1.7,0,0,1-1.049-1.855c.024-.13.078-.164.193-.162C502.367,546.284,502.553,546.282,502.737,546.282Z" transform="translate(-495.367 -539.874)" fill="#e10b21"/>
    <path id="Path_310" data-name="Path 310" d="M556.577,544a3.213,3.213,0,0,0-.341,0c-.25.026-.386-.029-.4-.329a.589.589,0,0,0-.642-.6.658.658,0,0,0-.719.484.635.635,0,0,0,.458.8c.436.171.886.307,1.324.472a1.624,1.624,0,0,1,1.205,1.748,1.766,1.766,0,0,1-1.329,1.77,3.615,3.615,0,0,1-2.144-.011,1.683,1.683,0,0,1-1.133-1.876c.006-.168.1-.174.223-.173.185,0,.37,0,.555,0,.372-.01.745-.1.727.52-.01.376.407.61.813.583a.708.708,0,0,0,.2-1.4c-.426-.158-.857-.3-1.279-.472a1.691,1.691,0,0,1-1.179-1.9,1.733,1.733,0,0,1,1.613-1.6,3.741,3.741,0,0,1,1.69.089,1.581,1.581,0,0,1,1.109,1.676c-.014.171-.079.218-.234.212C556.918,544,556.747,544,556.577,544Z" transform="translate(-515.621 -539.881)" fill="#e10b21"/>
    <path id="Path_311" data-name="Path 311" d="M696.253,545.4a4.881,4.881,0,0,1,.428-2.356,2.406,2.406,0,0,1,2.794-1.006,2.1,2.1,0,0,1,1.533,2.111c0,.187-.072.254-.253.242-.156-.01-.313,0-.469,0a1.85,1.85,0,0,1-.716-.03c-.233-.11-.1-.433-.171-.654-.1-.3-.257-.552-.608-.569a.688.688,0,0,0-.736.464,1.413,1.413,0,0,0-.09.283,8.7,8.7,0,0,0,.009,2.8c.08.468.352.709.722.707s.615-.266.71-.727c.048-.232-.053-.568.127-.678s.5-.042.752-.043c.794,0,.793,0,.664.784a2.172,2.172,0,0,1-2.714,1.748,1.993,1.993,0,0,1-1.883-1.92A5.83,5.83,0,0,1,696.253,545.4Z" transform="translate(-572.69 -539.869)" fill="#e10b21"/>
    <path id="Path_312" data-name="Path 312" d="M766.756,545.285a7.2,7.2,0,0,0,.081,1.274.991.991,0,0,0,.345.708c.442.319.973.051,1.1-.554.051-.245,0-.628.139-.712a1.792,1.792,0,0,1,.831-.056c.71,0,.7,0,.6.687-.211,1.513-1.3,1.971-2.755,1.838a1.835,1.835,0,0,1-1.747-1.493,6.4,6.4,0,0,1,.028-3.447,2.188,2.188,0,0,1,2.6-1.546,2.04,2.04,0,0,1,1.914,2.037c.022.247-.007.427-.326.378a2.165,2.165,0,0,0-.3,0,2.1,2.1,0,0,1-.8-.028c-.232-.107-.107-.458-.189-.69-.108-.305-.282-.535-.633-.538a.7.7,0,0,0-.717.5A5.176,5.176,0,0,0,766.756,545.285Z" transform="translate(-600.103 -539.877)" fill="#e10b21"/>
    <path id="Path_313" data-name="Path 313" d="M734.945,545.262a7.1,7.1,0,0,0,.087,1.273.944.944,0,0,0,.387.727c.468.282.944,0,1.067-.627.141-.719.141-.719.886-.719.774,0,.774,0,.663.736-.2,1.323-1.195,1.983-2.708,1.8a1.9,1.9,0,0,1-1.821-1.63,6.836,6.836,0,0,1-.007-3.082,2.417,2.417,0,0,1,3.649-1.47,2.23,2.23,0,0,1,.948,1.86c.017.189-.07.255-.25.242-.128-.008-.256,0-.384,0a2.087,2.087,0,0,1-.8-.031c-.232-.108-.106-.46-.188-.693a.659.659,0,0,0-.638-.532.7.7,0,0,0-.712.506A5.256,5.256,0,0,0,734.945,545.262Z" transform="translate(-587.446 -539.849)" fill="#e10b21"/>
    <path id="Path_314" data-name="Path 314" d="M615.461,544.443c0-.725-.011-1.45.005-2.175.006-.27-.061-.411-.352-.36-.389.067-.55-.087-.483-.479a.829.829,0,0,0,0-.255c-.043-.295.07-.431.373-.376.383.07.517-.089.459-.462a2.066,2.066,0,0,1,.005-.426,1.225,1.225,0,0,1,1.2-1.254,4.843,4.843,0,0,1,.512-.019c.8,0,.791,0,.8.816,0,.279-.075.362-.357.364a.6.6,0,0,0-.548.865c.084.2.27.081.407.114.156.038.411-.1.458.091a1.7,1.7,0,0,1-.013.961c-.048.137-.29.067-.436.052-.331-.033-.439.075-.434.419.02,1.421,0,2.843.015,4.263,0,.313-.046.472-.41.433s-.89.119-1.112-.073c-.259-.224-.069-.745-.082-1.137C615.449,545.352,615.461,544.9,615.461,544.443Z" transform="translate(-540.201 -538.554)" fill="#e10b21"/>
    <path id="Path_315" data-name="Path 315" d="M572.032,544.283c0-.6-.012-1.193.005-1.788.008-.268-.06-.413-.351-.359-.382.07-.52-.09-.459-.461a1.088,1.088,0,0,0,0-.3c-.034-.273.066-.407.354-.353.39.074.492-.1.457-.465-.031-.323.011-.653-.011-.978-.019-.274.093-.346.344-.326.409.032.933-.166,1.2.073s.1.779.076,1.179c-.03.438.11.6.534.517.325-.061.444.082.4.4a.828.828,0,0,0,0,.255c.063.373-.079.532-.46.46s-.478.081-.467.457c.028.95.007,1.9.01,2.852,0,.581.069.661.657.677.213.005.268.075.26.27-.041,1.022.211.792-.826.917a.343.343,0,0,1-.043,0c-1.312.04-1.624-.243-1.667-1.536-.016-.5,0-.993,0-1.489Z" transform="translate(-522.928 -538.782)" fill="#e10b21"/>
    <path id="Path_316" data-name="Path 316" d="M588.852,540.205v.213c0,.608,0,.617.617.63.213,0,.326.053.3.284a1.761,1.761,0,0,0,0,.213c0,.6,0,.617-.6.611-.282,0-.325.106-.323.35.011.994,0,1.988.006,2.982,0,.544.1.657.637.66.238,0,.289.085.28.3-.043.988.211.766-.81.892a1.108,1.108,0,0,1-.128,0c-1.272.019-1.591-.3-1.591-1.571,0-1.079-.012-2.159.007-3.238.005-.306-.089-.416-.382-.366-.349.06-.5-.075-.444-.434a1.033,1.033,0,0,0,0-.3c-.04-.291.066-.436.371-.378.391.075.488-.1.454-.461-.032-.338.006-.682-.011-1.022-.011-.228.073-.308.293-.287.127.013.256,0,.384,0C588.852,539.287,588.852,539.287,588.852,540.205Z" transform="translate(-528.975 -538.81)" fill="#e10b21"/>
    <path id="Path_317" data-name="Path 317" d="M561.785,544.3c0-.61-.013-1.221,0-1.83.008-.264-.081-.376-.339-.329-.425.077-.584-.114-.486-.506.052-.205-.224-.549.221-.6.6-.075.6-.07.6-.658,0-.353-.115-.826.065-1.028.212-.238.7-.043,1.063-.086s.527.06.479.456c-.035.294.014.6-.012.893-.029.326.067.461.415.431.156-.013.429-.134.474.113a2.239,2.239,0,0,1-.021.923c-.036.147-.309.067-.471.058-.278-.016-.407.046-.4.366.02.951,0,1.9.01,2.852.007.67.051.714.706.775.141.013.213.043.2.191a.2.2,0,0,0,0,.043c.069.871.016.93-.869.953-.071,0-.142,0-.214,0-1.077-.014-1.4-.321-1.423-1.4C561.774,545.381,561.785,544.841,561.785,544.3Z" transform="translate(-518.833 -538.788)" fill="#e10b21"/>
    <path id="Path_318" data-name="Path 318" d="M540.693,542.932c0,1.263-.008,2.526.007,3.789,0,.275-.068.376-.352.355a6,6,0,0,0-.981,0c-.318.028-.367-.107-.366-.388q.015-3.726,0-7.451c0-.313.073-.443.4-.406.419.047.982-.178,1.222.1.208.238.067.785.069,1.2C540.7,541.059,540.693,542,540.693,542.932Z" transform="translate(-510.107 -538.614)" fill="#e10b21"/>
    <path id="Path_319" data-name="Path 319" d="M716.348,542.938c0,1.263-.007,2.526.006,3.788,0,.269-.055.381-.346.357a7.846,7.846,0,0,0-.981,0c-.216.01-.3-.052-.3-.282q.012-3.83,0-7.661c0-.217.058-.31.287-.3.424.021.96-.128,1.241.077s.078.766.084,1.171C716.358,541.037,716.348,541.988,716.348,542.938Z" transform="translate(-580.047 -538.621)" fill="#e10b21"/>
    <path id="Path_320" data-name="Path 320" d="M668.82,542.964c0-1.22.02-2.44-.011-3.66-.01-.4.12-.488.478-.453a5.948,5.948,0,0,0,.852,0c.217-.01.3.059.3.288q-.01,3.83,0,7.661c0,.218-.055.3-.285.293-.424-.021-.961.136-1.243-.067s-.077-.766-.084-1.171C668.81,544.894,668.82,543.929,668.82,542.964Z" transform="translate(-561.751 -538.637)" fill="#e10b21"/>
    <path id="Path_321" data-name="Path 321" d="M512.624,545.361c0,.909-.011,1.819.007,2.728.006.284-.082.368-.358.349a8.941,8.941,0,0,0-.982,0c-.214.009-.3-.048-.3-.281q.013-2.814,0-5.626c0-.243.073-.326.316-.314a8.312,8.312,0,0,0,.982,0c.262-.017.343.07.338.334C512.615,543.486,512.624,544.424,512.624,545.361Z" transform="translate(-498.96 -539.977)" fill="#e10b21"/>
    <path id="Path_322" data-name="Path 322" d="M567.472,545.3c0-.922.009-1.844-.005-2.767,0-.261.072-.353.337-.336.408.027.942-.126,1.194.078.269.217.079.771.082,1.176.011,1.533,0,3.065.012,4.6,0,.3-.071.4-.374.373-.394-.033-.922.128-1.155-.071-.272-.231-.075-.772-.086-1.177C567.46,546.549,567.472,545.924,567.472,545.3Z" transform="translate(-521.417 -539.959)" fill="#e10b21"/>
    <path id="Path_323" data-name="Path 323" d="M692.107,545.28c0-.893.01-1.787-.006-2.681-.005-.282.05-.413.366-.387a8.768,8.768,0,0,0,1.023,0c.188-.007.245.065.244.246q-.006,2.872,0,5.744c0,.157-.038.246-.212.224-.028,0-.057,0-.085,0-.424-.007-.977.144-1.238-.065s-.076-.795-.086-1.214C692.1,546.529,692.107,545.9,692.107,545.28Z" transform="translate(-571.02 -539.976)" fill="#e1051e"/>
    <path id="Path_324" data-name="Path 324" d="M742.649,545.346c0-.908.019-1.816-.009-2.723-.011-.354.111-.436.432-.409a6.921,6.921,0,0,0,.9,0c.217-.01.3.056.3.286q-.012,2.831,0,5.661c0,.2-.051.3-.261.269-.014,0-.028,0-.043,0-.423-.022-.965.173-1.235-.072-.254-.229-.064-.777-.072-1.183C742.64,546.567,742.649,545.956,742.649,545.346Z" transform="translate(-591.135 -539.975)" fill="#e10b21"/>
    <path id="Path_325" data-name="Path 325" d="M511.819,540.124c-.818,0-.818,0-.818-.738,0-.662,0-.662.724-.662.9,0,.872,0,.914.866.022.464-.138.6-.565.535A1.648,1.648,0,0,0,511.819,540.124Z" transform="translate(-498.963 -538.589)" fill="#e10b21"/>
    <path id="Path_326" data-name="Path 326" d="M568.3,540.124c-.791,0-.791,0-.791-.76,0-.639,0-.639.658-.639.954,0,.954,0,.954.846,0,.554,0,.554-.566.554Z" transform="translate(-521.453 -538.589)" fill="#e10b21"/>
    <path id="Path_327" data-name="Path 327" d="M692.932,538.714c.828,0,.828,0,.828.76,0,.64,0,.64-.649.64-.978,0-.957,0-.987-.948-.012-.383.1-.513.469-.454A2.2,2.2,0,0,0,692.932,538.714Z" transform="translate(-571.049 -538.578)" fill="#e10b21"/>
    <path id="Path_328" data-name="Path 328" d="M743.473,540.124c-.786,0-.786,0-.786-.759,0-.641,0-.641.735-.641.877,0,.881,0,.876.845,0,.637.081.546-.57.554Z" transform="translate(-591.172 -538.589)" fill="#e10b21"/>
    <path id="Path_329" data-name="Path 329" d="M639.409,545.241a.9.9,0,0,1-.232,0c-.194-.07-.516.191-.583-.192a1.065,1.065,0,0,1,.63-1.217.648.648,0,0,1,.8.395,1.2,1.2,0,0,1,.092.947C640,545.37,639.611,545.2,639.409,545.241Z" transform="translate(-549.737 -540.61)" fill="#fff"/>
  </g>
  <path id="Path_330" data-name="Path 330" d="M450.359,467.947a.439.439,0,0,1,.447-.3C450.77,467.917,450.635,468.038,450.359,467.947Z" transform="translate(-425.662 -452.953)" fill="#e10b21"/>
  <path id="Path_331" data-name="Path 331" d="M445.534,487.134a1.832,1.832,0,0,1,1.686-.516,6.9,6.9,0,0,0-1.554.641Z" transform="translate(-423.742 -460.492)" fill="#e10b21"/>
  <path id="Path_332" data-name="Path 332" d="M447.525,488.936a.355.355,0,0,1-.288.249.082.082,0,0,1-.026-.06.291.291,0,0,1,.282-.243Z" transform="translate(-424.409 -461.404)" fill="#e10b21"/>
  <path id="Path_333" data-name="Path 333" d="M446.525,477.194c-.033-.326.235-.358.442-.449C446.978,477.05,446.737,477.108,446.525,477.194Z" transform="translate(-424.135 -456.574)" fill="#e10b21"/>
  <path id="Path_334" data-name="Path 334" d="M446.038,477.586c.058-.141.113-.288.306-.149C446.285,477.574,446.233,477.727,446.038,477.586Z" transform="translate(-423.943 -456.827)" fill="#e10b21"/>
  <path id="Path_335" data-name="Path 335" d="M447.238,476.664c0-.1.066-.145.158-.159C447.486,476.7,447.365,476.684,447.238,476.664Z" transform="translate(-424.42 -456.478)" fill="#e10b21"/>
  <path id="Path_336" data-name="Path 336" d="M441.635,473.633q.021.176-.156.155l-.008-.164Z" transform="translate(-422.125 -455.331)" fill="#e10b21"/>
  <path id="Path_337" data-name="Path 337" d="M447.679,460.537c.081-.1.171-.287.306-.12.08.1-.108.169-.188.243Z" transform="translate(-424.596 -450.048)" fill="#e10b21"/>
  <path id="Path_338" data-name="Path 338" d="M441.088,518.136c0,1.349-.034,2.5.014,3.64.023.547-.236.564-.642.555s-.731.06-.715-.559c.044-1.681.025-3.363.008-5.044,0-.369.1-.461.479-.5a1.409,1.409,0,0,1,1.563.808,20.752,20.752,0,0,0,2.1,3.043c0-1.063.037-2.128-.014-3.189-.028-.576.191-.657.7-.662.523,0,.706.107.69.669-.043,1.536,0,3.075-.026,4.612,0,.269.223.75-.216.782-.492.036-1.09.3-1.483-.356-.665-1.112-1.385-2.192-2.083-3.284C441.385,518.528,441.294,518.418,441.088,518.136Z" transform="translate(-421.438 -472.28)" fill="#e10b21"/>
  <path id="Path_339" data-name="Path 339" d="M461.875,536.32c-1.8.01-2.754-.864-2.632-2.233.054-.6.684-.93.778-1.354.077-.347-.619-.821-.569-1.434.077-.946.951-1.578,2.233-1.588,1.32-.01,2.253.615,2.316,1.571a1.322,1.322,0,0,1-.447,1.162c-.212.175-.275.259-.015.46a1.707,1.707,0,0,1,.613,1.931,1.943,1.943,0,0,1-1.6,1.381C462.267,536.278,461.979,536.3,461.875,536.32Zm-.217-1.082a.887.887,0,0,0,1.052-.9.9.9,0,0,0-.921-1.04.944.944,0,0,0-1.073.91A.914.914,0,0,0,461.658,535.237Zm.934-3.743c-.043-.555-.42-.719-.889-.711s-.871.2-.855.749c.017.564.406.767.931.75A.732.732,0,0,0,462.592,531.494Z" transform="translate(-429.194 -477.653)" fill="#e10b21"/>
  <path id="Path_340" data-name="Path 340" d="M441.605,533.657a2.7,2.7,0,0,1-1.335.35,2.011,2.011,0,0,1-2.135-1.644,2.227,2.227,0,0,1,1.545-2.589,2.459,2.459,0,0,1,3.363,2.118,5.514,5.514,0,0,1-.25,2.9,2.574,2.574,0,0,1-3.93.995,1.016,1.016,0,0,1-.208-.2c-.2-.289-.473-.571-.318-.961a2.218,2.218,0,0,1,1.359.1.865.865,0,0,0,1.22.409A1.417,1.417,0,0,0,441.605,533.657Zm0-1.81a1.026,1.026,0,1,0-2.04.058.971.971,0,0,0,1.01,1.063A1,1,0,0,0,441.609,531.847Z" transform="translate(-420.785 -477.619)" fill="#e10b21"/>
  <path id="Path_341" data-name="Path 341" d="M424.979,522.365a4.209,4.209,0,0,1-1.422-.193,2.222,2.222,0,0,1-1.062-.71c-.25-.319-.5-.7-.3-1.093.144-.275,1.235.028,1.448.367a1.963,1.963,0,0,0,2.53.213c.341-.379.222-.793-.354-.962-.78-.228-1.594-.344-2.375-.571a1.528,1.528,0,0,1-1.207-1.845,1.62,1.62,0,0,1,.961-1.267,3.7,3.7,0,0,1,3.457.121,1.785,1.785,0,0,1,.529.474c.225.3.488.652.256,1.028-.159.257-1.193-.009-1.4-.319a1.711,1.711,0,0,0-2.206-.3.531.531,0,0,0-.244.556.66.66,0,0,0,.517.445c.869.274,1.8.311,2.646.666a1.577,1.577,0,0,1,.582,2.554,2.512,2.512,0,0,1-1.645.8C425.461,522.356,425.219,522.353,424.979,522.365Z" transform="translate(-414.425 -472.171)" fill="#e10b21"/>
  <path id="Path_342" data-name="Path 342" d="M464.724,519.268c0-.84.015-1.681-.007-2.522-.01-.362.082-.5.476-.5,1.348.022,2.7.03,4.044,0,.5-.012.441.271.455.589.015.365-.038.582-.5.563-.841-.034-1.686.018-2.527-.02-.476-.022-.566.175-.547.588.018.381-.023.71.548.671.695-.047,1.4,0,2.094-.016.409-.01.667.016.654.563-.011.508-.247.524-.625.515-.722-.017-1.446.026-2.166-.014-.685-.039-.483.437-.489.772s-.167.8.5.772c.913-.038,1.829.011,2.743-.018.445-.014.516.188.512.563,0,.358-.031.579-.494.57-1.4-.027-2.792-.021-4.188,0-.371,0-.508-.1-.5-.483C464.742,521,464.724,520.133,464.724,519.268Z" transform="translate(-431.376 -472.295)" fill="#e10b21"/>
  <path id="Path_343" data-name="Path 343" d="M456.872,518.24c-.382.076-.65-.079-.913-.493a1.5,1.5,0,0,0-2.474.221,2.888,2.888,0,0,0-.122,2.372,1.388,1.388,0,0,0,1.238.957,1.369,1.369,0,0,0,1.456-.707,1.582,1.582,0,0,1,1.453-.366c.249.133.063.3.025.427a2.731,2.731,0,0,1-2.882,1.8,2.773,2.773,0,0,1-2.811-2.036,3.479,3.479,0,0,1,1.043-3.782,3.69,3.69,0,0,1,3.763-.051,2.289,2.289,0,0,1,.774.836C457.818,518.155,457.77,518.239,456.872,518.24Z" transform="translate(-426.186 -472.232)" fill="#e10b21"/>
  <path id="Path_344" data-name="Path 344" d="M452.075,531.048c-1.079,0-2.014-.034-2.944.013-.55.028-.474-.287-.493-.627-.022-.372.044-.562.494-.551,1.3.03,2.6,0,3.9.016.226,0,.584-.134.653.11a1.04,1.04,0,0,1-.109,1.026c-.143.163-.282.328-.425.49a8.017,8.017,0,0,0-2,4.232c-.131.9-.78.37-1.173.432-.5.079-.317-.383-.282-.616a8.38,8.38,0,0,1,1.884-3.907C451.706,531.5,451.843,531.334,452.075,531.048Z" transform="translate(-424.976 -477.714)" fill="#e10b21"/>
  <path id="Path_345" data-name="Path 345" d="M431.385,532.972c0,.863-.044,1.729.014,2.588.045.658-.333.607-.757.6-.4-.01-.814.107-.776-.576.057-1-.038-2.017.033-3.018.051-.725-.2-.915-.88-.846-.305.031-.83.249-.782-.456.019-.288.064-.428.4-.429a1.444,1.444,0,0,0,1.5-.877c.181-.417.639-.172.967-.183.375-.013.273.323.276.54C431.39,531.2,431.385,532.086,431.385,532.972Z" transform="translate(-416.856 -477.653)" fill="#e10b21"/>
  <path id="Path_346" data-name="Path 346" d="M435.49,519.272c0,.864-.03,1.729.01,2.591.03.645-.414.459-.722.449s-.751.23-.741-.429c.026-1.728.03-3.456,0-5.183-.011-.575.344-.488.65-.443s.831-.3.812.423C435.473,517.545,435.49,518.409,435.49,519.272Z" transform="translate(-419.165 -472.282)" fill="#e1051e"/>
</svg>
